solid OpenSCAD_Model
  facet normal 0.00449862 0 0.99999
    outer loop
      vertex 196.25 150 1.21687
      vertex 200 0 1.2
      vertex 200 150 1.2
    endloop
  endfacet
  facet normal 0.00449862 0 0.99999
    outer loop
      vertex 200 0 1.2
      vertex 196.25 150 1.21687
      vertex 196.25 0.0346772 1.21687
    endloop
  endfacet
  facet normal 0.0135001 -0 0.999909
    outer loop
      vertex 192.5 0.138709 1.2675
      vertex 196.25 150 1.21687
      vertex 192.5 150 1.2675
    endloop
  endfacet
  facet normal 0.0135001 0 0.999909
    outer loop
      vertex 196.25 150 1.21687
      vertex 192.5 0.138709 1.2675
      vertex 196.25 0.0346772 1.21687
    endloop
  endfacet
  facet normal 0.0224717 -0 0.999747
    outer loop
      vertex 188.75 0.311906 1.35179
      vertex 192.5 150 1.2675
      vertex 188.75 150 1.35179
    endloop
  endfacet
  facet normal 0.0224717 0 0.999747
    outer loop
      vertex 192.5 150 1.2675
      vertex 188.75 0.311906 1.35179
      vertex 192.5 0.138709 1.2675
    endloop
  endfacet
  facet normal 0.0314058 -0 0.999507
    outer loop
      vertex 185 0.554019 1.46962
      vertex 188.75 150 1.35179
      vertex 185 150 1.46962
    endloop
  endfacet
  facet normal 0.0314058 0 0.999507
    outer loop
      vertex 188.75 150 1.35179
      vertex 185 0.554019 1.46962
      vertex 188.75 0.311906 1.35179
    endloop
  endfacet
  facet normal 0.0402793 -0 0.999188
    outer loop
      vertex 181.25 0.86464 1.62079
      vertex 185 150 1.46962
      vertex 181.25 150 1.62079
    endloop
  endfacet
  facet normal 0.0402793 0 0.999188
    outer loop
      vertex 185 150 1.46962
      vertex 181.25 0.86464 1.62079
      vertex 185 0.554019 1.46962
    endloop
  endfacet
  facet normal 0.0490848 -0 0.998795
    outer loop
      vertex 177.5 1.24333 1.80508
      vertex 181.25 150 1.62079
      vertex 177.5 150 1.80508
    endloop
  endfacet
  facet normal 0.0490848 0 0.998795
    outer loop
      vertex 181.25 150 1.62079
      vertex 177.5 1.24333 1.80508
      vertex 181.25 0.86464 1.62079
    endloop
  endfacet
  facet normal 0.0578072 -0 0.998328
    outer loop
      vertex 173.75 1.68949 2.02222
      vertex 177.5 150 1.80508
      vertex 173.75 150 2.02222
    endloop
  endfacet
  facet normal 0.0578072 0 0.998328
    outer loop
      vertex 177.5 150 1.80508
      vertex 173.75 1.68949 2.02222
      vertex 177.5 1.24333 1.80508
    endloop
  endfacet
  facet normal 0.066421 -0 0.997792
    outer loop
      vertex 170 2.20244 2.27185
      vertex 173.75 150 2.02222
      vertex 170 150 2.27185
    endloop
  endfacet
  facet normal 0.066421 0 0.997792
    outer loop
      vertex 173.75 150 2.02222
      vertex 170 2.20244 2.27185
      vertex 173.75 1.68949 2.02222
    endloop
  endfacet
  facet normal 0.0749222 -0 0.997189
    outer loop
      vertex 166.25 2.78138 2.5536
      vertex 170 150 2.27185
      vertex 166.25 150 2.5536
    endloop
  endfacet
  facet normal 0.0749222 0 0.997189
    outer loop
      vertex 170 150 2.27185
      vertex 166.25 2.78138 2.5536
      vertex 170 2.20244 2.27185
    endloop
  endfacet
  facet normal 0.0832909 -0 0.996525
    outer loop
      vertex 162.5 3.42542 2.86703
      vertex 166.25 150 2.5536
      vertex 162.5 150 2.86703
    endloop
  endfacet
  facet normal 0.0832909 0 0.996525
    outer loop
      vertex 166.25 150 2.5536
      vertex 162.5 3.42542 2.86703
      vertex 166.25 2.78138 2.5536
    endloop
  endfacet
  facet normal 0.091513 -0 0.995804
    outer loop
      vertex 158.75 4.13354 3.21165
      vertex 162.5 150 2.86703
      vertex 158.75 150 3.21165
    endloop
  endfacet
  facet normal 0.091513 0 0.995804
    outer loop
      vertex 162.5 150 2.86703
      vertex 158.75 4.13354 3.21165
      vertex 162.5 3.42542 2.86703
    endloop
  endfacet
  facet normal 0.0995799 -0 0.99503
    outer loop
      vertex 155 4.90469 3.58694
      vertex 158.75 150 3.21165
      vertex 155 150 3.58694
    endloop
  endfacet
  facet normal 0.0995799 0 0.99503
    outer loop
      vertex 158.75 150 3.21165
      vertex 155 4.90469 3.58694
      vertex 158.75 4.13354 3.21165
    endloop
  endfacet
  facet normal 0.107475 -0 0.994208
    outer loop
      vertex 151.25 5.73766 3.99232
      vertex 155 150 3.58694
      vertex 151.25 150 3.99232
    endloop
  endfacet
  facet normal 0.107475 0 0.994208
    outer loop
      vertex 155 150 3.58694
      vertex 151.25 5.73766 3.99232
      vertex 155 4.90469 3.58694
    endloop
  endfacet
  facet normal 0.115188 -0 0.993344
    outer loop
      vertex 147.5 6.63118 4.42717
      vertex 151.25 150 3.99232
      vertex 147.5 150 4.42717
    endloop
  endfacet
  facet normal 0.115188 0 0.993344
    outer loop
      vertex 151.25 150 3.99232
      vertex 147.5 6.63118 4.42717
      vertex 151.25 5.73766 3.99232
    endloop
  endfacet
  facet normal 0.122703 -0 0.992443
    outer loop
      vertex 143.75 7.58386 4.89081
      vertex 147.5 150 4.42717
      vertex 143.75 150 4.89081
    endloop
  endfacet
  facet normal 0.122703 0 0.992443
    outer loop
      vertex 147.5 150 4.42717
      vertex 143.75 7.58386 4.89081
      vertex 147.5 6.63118 4.42717
    endloop
  endfacet
  facet normal 0.13001 -0 0.991513
    outer loop
      vertex 140 8.59423 5.38252
      vertex 143.75 150 4.89081
      vertex 140 150 5.38252
    endloop
  endfacet
  facet normal 0.13001 0 0.991513
    outer loop
      vertex 143.75 150 4.89081
      vertex 140 8.59423 5.38252
      vertex 143.75 7.58386 4.89081
    endloop
  endfacet
  facet normal 0.137101 -0 0.990557
    outer loop
      vertex 136.25 9.66073 5.90155
      vertex 140 150 5.38252
      vertex 136.25 150 5.90155
    endloop
  endfacet
  facet normal 0.137101 0 0.990557
    outer loop
      vertex 140 150 5.38252
      vertex 136.25 9.66073 5.90155
      vertex 140 8.59423 5.38252
    endloop
  endfacet
  facet normal 0.143965 -0 0.989583
    outer loop
      vertex 132.5 10.7817 6.4471
      vertex 136.25 150 5.90155
      vertex 132.5 150 6.4471
    endloop
  endfacet
  facet normal 0.143965 0 0.989583
    outer loop
      vertex 136.25 150 5.90155
      vertex 132.5 10.7817 6.4471
      vertex 136.25 9.66073 5.90155
    endloop
  endfacet
  facet normal 0.150591 -0 0.988596
    outer loop
      vertex 128.75 11.9555 7.01833
      vertex 132.5 150 6.4471
      vertex 128.75 150 7.01833
    endloop
  endfacet
  facet normal 0.150591 0 0.988596
    outer loop
      vertex 132.5 150 6.4471
      vertex 128.75 11.9555 7.01833
      vertex 132.5 10.7817 6.4471
    endloop
  endfacet
  facet normal 0.156968 -0 0.987604
    outer loop
      vertex 125 13.1802 7.61435
      vertex 128.75 150 7.01833
      vertex 125 150 7.61435
    endloop
  endfacet
  facet normal 0.156968 0 0.987604
    outer loop
      vertex 128.75 150 7.01833
      vertex 125 13.1802 7.61435
      vertex 128.75 11.9555 7.01833
    endloop
  endfacet
  facet normal 0.163093 -0 0.986611
    outer loop
      vertex 121.25 14.4539 8.23425
      vertex 125 150 7.61435
      vertex 121.25 150 8.23425
    endloop
  endfacet
  facet normal 0.163093 0 0.986611
    outer loop
      vertex 125 150 7.61435
      vertex 121.25 14.4539 8.23425
      vertex 125 13.1802 7.61435
    endloop
  endfacet
  facet normal 0.168957 -0 0.985623
    outer loop
      vertex 117.5 15.7748 8.87708
      vertex 121.25 150 8.23425
      vertex 117.5 150 8.87708
    endloop
  endfacet
  facet normal 0.168957 0 0.985623
    outer loop
      vertex 121.25 150 8.23425
      vertex 117.5 15.7748 8.87708
      vertex 121.25 14.4539 8.23425
    endloop
  endfacet
  facet normal 0.174548 -0 0.984649
    outer loop
      vertex 113.75 17.1408 9.54184
      vertex 117.5 150 8.87708
      vertex 113.75 150 9.54184
    endloop
  endfacet
  facet normal 0.174548 0 0.984649
    outer loop
      vertex 117.5 150 8.87708
      vertex 113.75 17.1408 9.54184
      vertex 117.5 15.7748 8.87708
    endloop
  endfacet
  facet normal 0.179861 -0 0.983692
    outer loop
      vertex 110 18.5496 10.2275
      vertex 113.75 150 9.54184
      vertex 110 150 10.2275
    endloop
  endfacet
  facet normal 0.179861 0 0.983692
    outer loop
      vertex 113.75 150 9.54184
      vertex 110 18.5496 10.2275
      vertex 113.75 17.1408 9.54184
    endloop
  endfacet
  facet normal 0.18489 -0 0.982759
    outer loop
      vertex 106.25 19.9993 10.933
      vertex 110 150 10.2275
      vertex 106.25 150 10.933
    endloop
  endfacet
  facet normal 0.18489 0 0.982759
    outer loop
      vertex 110 150 10.2275
      vertex 106.25 19.9993 10.933
      vertex 110 18.5496 10.2275
    endloop
  endfacet
  facet normal 0.189642 -0 0.981853
    outer loop
      vertex 102.5 21.4876 11.6573
      vertex 106.25 150 10.933
      vertex 102.5 150 11.6573
    endloop
  endfacet
  facet normal 0.189642 0 0.981853
    outer loop
      vertex 106.25 150 10.933
      vertex 102.5 21.4876 11.6573
      vertex 106.25 19.9993 10.933
    endloop
  endfacet
  facet normal 0.194078 -0 0.980986
    outer loop
      vertex 98.75 23.012 12.3992
      vertex 102.5 150 11.6573
      vertex 98.75 150 12.3992
    endloop
  endfacet
  facet normal 0.194078 0 0.980986
    outer loop
      vertex 102.5 150 11.6573
      vertex 98.75 23.012 12.3992
      vertex 102.5 21.4876 11.6573
    endloop
  endfacet
  facet normal 0.198227 -0 0.980156
    outer loop
      vertex 95 24.5704 13.1576
      vertex 98.75 150 12.3992
      vertex 95 150 13.1576
    endloop
  endfacet
  facet normal 0.198227 0 0.980156
    outer loop
      vertex 98.75 150 12.3992
      vertex 95 24.5704 13.1576
      vertex 98.75 23.012 12.3992
    endloop
  endfacet
  facet normal 0.202089 -0 0.979367
    outer loop
      vertex 91.25 26.1603 13.9314
      vertex 95 150 13.1576
      vertex 91.25 150 13.9314
    endloop
  endfacet
  facet normal 0.202089 0 0.979367
    outer loop
      vertex 95 150 13.1576
      vertex 91.25 26.1603 13.9314
      vertex 95 24.5704 13.1576
    endloop
  endfacet
  facet normal 0.205592 -0 0.978638
    outer loop
      vertex 87.5 27.7792 14.7192
      vertex 91.25 150 13.9314
      vertex 87.5 150 14.7192
    endloop
  endfacet
  facet normal 0.205592 0 0.978638
    outer loop
      vertex 91.25 150 13.9314
      vertex 87.5 27.7792 14.7192
      vertex 91.25 26.1603 13.9314
    endloop
  endfacet
  facet normal 0.208838 -0 0.97795
    outer loop
      vertex 83.75 29.4247 15.52
      vertex 87.5 150 14.7192
      vertex 83.75 150 15.52
    endloop
  endfacet
  facet normal 0.208838 0 0.97795
    outer loop
      vertex 87.5 150 14.7192
      vertex 83.75 29.4247 15.52
      vertex 87.5 27.7792 14.7192
    endloop
  endfacet
  facet normal 0.211753 -0 0.977323
    outer loop
      vertex 80 31.0942 16.3325
      vertex 83.75 150 15.52
      vertex 80 150 16.3325
    endloop
  endfacet
  facet normal 0.211753 0 0.977323
    outer loop
      vertex 83.75 150 15.52
      vertex 80 31.0942 16.3325
      vertex 83.75 29.4247 15.52
    endloop
  endfacet
  facet normal 0.21434 -0 0.976759
    outer loop
      vertex 76.25 32.7852 17.1554
      vertex 80 150 16.3325
      vertex 76.25 150 17.1554
    endloop
  endfacet
  facet normal 0.21434 0 0.976759
    outer loop
      vertex 80 150 16.3325
      vertex 76.25 32.7852 17.1554
      vertex 80 31.0942 16.3325
    endloop
  endfacet
  facet normal 0.216624 -0 0.976255
    outer loop
      vertex 72.5 34.4949 17.9875
      vertex 76.25 150 17.1554
      vertex 72.5 150 17.9875
    endloop
  endfacet
  facet normal 0.216624 0 0.976255
    outer loop
      vertex 76.25 150 17.1554
      vertex 72.5 34.4949 17.9875
      vertex 76.25 32.7852 17.1554
    endloop
  endfacet
  facet normal 0.218583 -0 0.975818
    outer loop
      vertex 68.75 36.2209 18.8275
      vertex 72.5 150 17.9875
      vertex 68.75 150 18.8275
    endloop
  endfacet
  facet normal 0.218583 0 0.975818
    outer loop
      vertex 72.5 150 17.9875
      vertex 68.75 36.2209 18.8275
      vertex 72.5 34.4949 17.9875
    endloop
  endfacet
  facet normal 0.220218 -0 0.975451
    outer loop
      vertex 65 37.9604 19.6741
      vertex 68.75 150 18.8275
      vertex 65 150 19.6741
    endloop
  endfacet
  facet normal 0.220218 0 0.975451
    outer loop
      vertex 68.75 150 18.8275
      vertex 65 37.9604 19.6741
      vertex 68.75 36.2209 18.8275
    endloop
  endfacet
  facet normal 0.221504 -0 0.975159
    outer loop
      vertex 61.25 39.7108 20.5259
      vertex 65 150 19.6741
      vertex 61.25 150 20.5259
    endloop
  endfacet
  facet normal 0.221504 0 0.975159
    outer loop
      vertex 65 150 19.6741
      vertex 61.25 39.7108 20.5259
      vertex 65 37.9604 19.6741
    endloop
  endfacet
  facet normal 0.221501 0 0.97516
    outer loop
      vertex 63 162 20.1284
      vertex 61.25 162 20.5259
      vertex 61.25 156.75 20.5259
    endloop
  endfacet
  facet normal 0.222493 0 0.974934
    outer loop
      vertex 57.5 162 21.3817
      vertex 61.25 156.75 20.5259
      vertex 61.25 162 20.5259
    endloop
  endfacet
  facet normal 0.222496 1.96956e-06 0.974934
    outer loop
      vertex 61.25 156.75 20.5259
      vertex 57.5 162 21.3817
      vertex 59 150 21.0394
    endloop
  endfacet
  facet normal 0.222501 -2.99434e-07 0.974932
    outer loop
      vertex 57.5 41.4693 21.3817
      vertex 61.25 150 20.5259
      vertex 59 150 21.0394
    endloop
  endfacet
  facet normal 0.222481 -0 0.974937
    outer loop
      vertex 57.5 41.4693 21.3817
      vertex 59 150 21.0394
      vertex 57.5 162 21.3817
    endloop
  endfacet
  facet normal 0.222493 0 0.974934
    outer loop
      vertex 61.25 150 20.5259
      vertex 57.5 41.4693 21.3817
      vertex 61.25 39.7108 20.5259
    endloop
  endfacet
  facet normal 0.22316 -0 0.974782
    outer loop
      vertex 53.75 43.2333 22.2402
      vertex 57.5 162 21.3817
      vertex 53.75 162 22.2402
    endloop
  endfacet
  facet normal 0.22316 0 0.974782
    outer loop
      vertex 57.5 162 21.3817
      vertex 53.75 43.2333 22.2402
      vertex 57.5 41.4693 21.3817
    endloop
  endfacet
  facet normal 0.223481 -0 0.974708
    outer loop
      vertex 46.25 46.7667 23.9598
      vertex 53.75 162 22.2402
      vertex 46.25 162 23.9598
    endloop
  endfacet
  facet normal 0.223481 0 0.974708
    outer loop
      vertex 53.75 162 22.2402
      vertex 46.25 46.7667 23.9598
      vertex 53.75 43.2333 22.2402
    endloop
  endfacet
  facet normal 0.22316 -0 0.974782
    outer loop
      vertex 42.5 48.5307 24.8183
      vertex 46.25 162 23.9598
      vertex 42.5 162 24.8183
    endloop
  endfacet
  facet normal 0.22316 0 0.974782
    outer loop
      vertex 46.25 162 23.9598
      vertex 42.5 48.5307 24.8183
      vertex 46.25 46.7667 23.9598
    endloop
  endfacet
  facet normal 0.222481 0 0.974937
    outer loop
      vertex 42.5 162 24.8183
      vertex 41 150 25.1606
      vertex 42.5 48.5307 24.8183
    endloop
  endfacet
  facet normal 0.222493 -0 0.974934
    outer loop
      vertex 38.75 156.75 25.6741
      vertex 42.5 162 24.8183
      vertex 38.75 162 25.6741
    endloop
  endfacet
  facet normal 0.222496 -1.96956e-06 0.974934
    outer loop
      vertex 42.5 162 24.8183
      vertex 38.75 156.75 25.6741
      vertex 41 150 25.1606
    endloop
  endfacet
  facet normal 0.222501 -0 0.974932
    outer loop
      vertex 38.75 50.2892 25.6741
      vertex 41 150 25.1606
      vertex 38.75 150 25.6741
    endloop
  endfacet
  facet normal 0.222493 1.93505e-07 0.974934
    outer loop
      vertex 41 150 25.1606
      vertex 38.75 50.2892 25.6741
      vertex 42.5 48.5307 24.8183
    endloop
  endfacet
  facet normal 0.221504 -0 0.975159
    outer loop
      vertex 35 52.0395 26.5259
      vertex 38.75 150 25.6741
      vertex 35 150 26.5259
    endloop
  endfacet
  facet normal 0.221504 0 0.975159
    outer loop
      vertex 38.75 150 25.6741
      vertex 35 52.0395 26.5259
      vertex 38.75 50.2892 25.6741
    endloop
  endfacet
  facet normal 0.221501 -0 0.97516
    outer loop
      vertex 38.75 156.75 25.6741
      vertex 38.75 162 25.6741
      vertex 37 162 26.0716
    endloop
  endfacet
  facet normal 0.220218 -0 0.975451
    outer loop
      vertex 31.25 53.779 27.3725
      vertex 35 150 26.5259
      vertex 31.25 150 27.3725
    endloop
  endfacet
  facet normal 0.220218 0 0.975451
    outer loop
      vertex 35 150 26.5259
      vertex 31.25 53.779 27.3725
      vertex 35 52.0395 26.5259
    endloop
  endfacet
  facet normal 0.218559 -0 0.975824
    outer loop
      vertex 27.5 55.505 28.2124
      vertex 31.25 150 27.3725
      vertex 27.5 150 28.2124
    endloop
  endfacet
  facet normal 0.218559 0 0.975824
    outer loop
      vertex 31.25 150 27.3725
      vertex 27.5 55.505 28.2124
      vertex 31.25 53.779 27.3725
    endloop
  endfacet
  facet normal 0.216624 -0 0.976255
    outer loop
      vertex 23.75 57.2148 29.0445
      vertex 27.5 150 28.2124
      vertex 23.75 150 29.0445
    endloop
  endfacet
  facet normal 0.216624 0 0.976255
    outer loop
      vertex 27.5 150 28.2124
      vertex 23.75 57.2148 29.0445
      vertex 27.5 55.505 28.2124
    endloop
  endfacet
  facet normal 0.214365 -0 0.976754
    outer loop
      vertex 20 58.9057 29.8675
      vertex 23.75 150 29.0445
      vertex 20 150 29.8675
    endloop
  endfacet
  facet normal 0.214365 0 0.976754
    outer loop
      vertex 23.75 150 29.0445
      vertex 20 58.9057 29.8675
      vertex 23.75 57.2148 29.0445
    endloop
  endfacet
  facet normal 0.211753 -0 0.977323
    outer loop
      vertex 16.25 60.5753 30.68
      vertex 20 150 29.8675
      vertex 16.25 150 30.68
    endloop
  endfacet
  facet normal 0.211753 0 0.977323
    outer loop
      vertex 20 150 29.8675
      vertex 16.25 60.5753 30.68
      vertex 20 58.9057 29.8675
    endloop
  endfacet
  facet normal 0.208838 -0 0.97795
    outer loop
      vertex 12.5 62.2207 31.4808
      vertex 16.25 150 30.68
      vertex 12.5 150 31.4808
    endloop
  endfacet
  facet normal 0.208838 0 0.97795
    outer loop
      vertex 16.25 150 30.68
      vertex 12.5 62.2207 31.4808
      vertex 16.25 60.5753 30.68
    endloop
  endfacet
  facet normal 0.205517 0 0.978653
    outer loop
      vertex 12.5 150 31.4808
      vertex 12.35 88.4856 31.5123
      vertex 12.5 62.2207 31.4808
    endloop
  endfacet
  facet normal 0.205592 -1.90909e-07 0.978638
    outer loop
      vertex 8.75 150 32.2686
      vertex 12.35 88.4856 31.5123
      vertex 12.5 150 31.4808
    endloop
  endfacet
  facet normal 0.205595 0 0.978637
    outer loop
      vertex 12.35 88.4856 31.5123
      vertex 8.75 150 32.2686
      vertex 8.75 87.2856 32.2686
    endloop
  endfacet
  facet normal 0.205517 0 0.978653
    outer loop
      vertex 12.5 62.2207 31.4808
      vertex 12.35 88.4856 31.5123
      vertex 12.35 62.2855 31.5123
    endloop
  endfacet
  facet normal 0.202089 0 0.979367
    outer loop
      vertex 5 150 33.0424
      vertex 8.75 87.2856 32.2686
      vertex 8.75 150 32.2686
    endloop
  endfacet
  facet normal 0.202089 0 0.979367
    outer loop
      vertex 8.75 87.2856 32.2686
      vertex 5 150 33.0424
      vertex 5 86.0356 33.0424
    endloop
  endfacet
  facet normal 0.198227 0 0.980156
    outer loop
      vertex 1.25 150 33.8008
      vertex 5 86.0356 33.0424
      vertex 5 150 33.0424
    endloop
  endfacet
  facet normal 0.198227 0 0.980156
    outer loop
      vertex 5 86.0356 33.0424
      vertex 1.25 150 33.8008
      vertex 1.25 84.7856 33.8008
    endloop
  endfacet
  facet normal 0.194078 0 0.980986
    outer loop
      vertex 0 150 34.0481
      vertex 1.25 84.7856 33.8008
      vertex 1.25 150 33.8008
    endloop
  endfacet
  facet normal 0.194078 0 0.980986
    outer loop
      vertex 1.25 84.7856 33.8008
      vertex 0 150 34.0481
      vertex 0 84.3689 34.0481
    endloop
  endfacet
  facet normal 0 0 -1
    outer loop
      vertex 200 0 0
      vertex 59 150 0
      vertex 200 150 0
    endloop
  endfacet
  facet normal 0 0 -1
    outer loop
      vertex 12.35 61.5144 0
      vertex 59 150 0
      vertex 200 0 0
    endloop
  endfacet
  facet normal 0 0 -1
    outer loop
      vertex 12.35 88.4856 0
      vertex 59 150 0
      vertex 12.35 61.5144 0
    endloop
  endfacet
  facet normal 0 0 -1
    outer loop
      vertex 0 0 0
      vertex 12.35 61.5144 0
      vertex 200 0 0
    endloop
  endfacet
  facet normal -0 0 -1
    outer loop
      vertex 12.35 61.5144 0
      vertex 0 0 0
      vertex 0 65.6311 0
    endloop
  endfacet
  facet normal 0 0 -1
    outer loop
      vertex 41 150 0
      vertex 63 162 0
      vertex 59 150 0
    endloop
  endfacet
  facet normal -0 0 -1
    outer loop
      vertex 63 162 0
      vertex 41 150 0
      vertex 37 162 0
    endloop
  endfacet
  facet normal -0 0 -1
    outer loop
      vertex 59 150 0
      vertex 12.35 88.4856 0
      vertex 41 150 0
    endloop
  endfacet
  facet normal 0 0 -1
    outer loop
      vertex 0 150 0
      vertex 12.35 88.4856 0
      vertex 0 84.3689 0
    endloop
  endfacet
  facet normal 0 0 -1
    outer loop
      vertex 12.35 88.4856 0
      vertex 0 150 0
      vertex 41 150 0
    endloop
  endfacet
  facet normal 1 -0 0
    outer loop
      vertex 200 0 1.2
      vertex 200 150 0
      vertex 200 150 1.2
    endloop
  endfacet
  facet normal 1 0 0
    outer loop
      vertex 200 150 0
      vertex 200 0 1.2
      vertex 200 0 0
    endloop
  endfacet
  facet normal 0 -1 0
    outer loop
      vertex 0 0 0
      vertex 200 0 1.2
      vertex 0 0 1.2
    endloop
  endfacet
  facet normal 0 -1 -0
    outer loop
      vertex 200 0 1.2
      vertex 0 0 0
      vertex 200 0 0
    endloop
  endfacet
  facet normal 3.23594e-06 -0.437599 0.89917
    outer loop
      vertex 0 0 1.2
      vertex 46.25 46.7667 23.9598
      vertex 42.5 48.5307 24.8183
    endloop
  endfacet
  facet normal -7.26723e-07 -0.437597 0.899171
    outer loop
      vertex 0 0 1.2
      vertex 42.5 48.5307 24.8183
      vertex 38.75 50.2892 25.6741
    endloop
  endfacet
  facet normal -2.37294e-06 -0.437596 0.899172
    outer loop
      vertex 0 0 1.2
      vertex 38.75 50.2892 25.6741
      vertex 35 52.0395 26.5259
    endloop
  endfacet
  facet normal 9.44342e-07 -0.437598 0.899171
    outer loop
      vertex 46.25 46.7667 23.9598
      vertex 0 0 1.2
      vertex 53.75 43.2333 22.2402
    endloop
  endfacet
  facet normal 7.85854e-06 -0.437601 0.899169
    outer loop
      vertex 0 0 1.2
      vertex 35 52.0395 26.5259
      vertex 31.25 53.779 27.3725
    endloop
  endfacet
  facet normal 3.06297e-06 -0.4376 0.89917
    outer loop
      vertex 53.75 43.2333 22.2402
      vertex 0 0 1.2
      vertex 57.5 41.4693 21.3817
    endloop
  endfacet
  facet normal -1.67196e-05 -0.43759 0.899175
    outer loop
      vertex 0 0 1.2
      vertex 31.25 53.779 27.3725
      vertex 27.5 55.505 28.2124
    endloop
  endfacet
  facet normal -3.20746e-07 -0.437596 0.899172
    outer loop
      vertex 0 0 1.2
      vertex 27.5 55.505 28.2124
      vertex 23.75 57.2148 29.0445
    endloop
  endfacet
  facet normal 1.94698e-05 -0.437603 0.899168
    outer loop
      vertex 0 0 1.2
      vertex 23.75 57.2148 29.0445
      vertex 20 58.9057 29.8675
    endloop
  endfacet
  facet normal -3.24142e-07 -0.437596 0.899172
    outer loop
      vertex 57.5 41.4693 21.3817
      vertex 0 0 1.2
      vertex 61.25 39.7108 20.5259
    endloop
  endfacet
  facet normal -3.47362e-06 -0.437586 0.899176
    outer loop
      vertex 12.35 61.5144 31.137
      vertex 20 58.9057 29.8675
      vertex 16.25 60.5753 30.68
    endloop
  endfacet
  facet normal -2.59236e-05 -0.437662 0.89914
    outer loop
      vertex 12.35 61.5144 31.137
      vertex 16.25 60.5753 30.68
      vertex 12.5 62.2207 31.4808
    endloop
  endfacet
  facet normal -7.36985e-06 -0.437595 0.899172
    outer loop
      vertex 20 58.9057 29.8675
      vertex 12.35 61.5144 31.137
      vertex 0 0 1.2
    endloop
  endfacet
  facet normal -0.000231582 -0.437626 0.899157
    outer loop
      vertex 12.35 61.5144 31.137
      vertex 12.5 62.2207 31.4808
      vertex 12.35 62.2855 31.5123
    endloop
  endfacet
  facet normal -8.41126e-06 -0.437586 0.899177
    outer loop
      vertex 61.25 39.7108 20.5259
      vertex 0 0 1.2
      vertex 65 37.9604 19.6741
    endloop
  endfacet
  facet normal 5.55404e-06 -0.437605 0.899167
    outer loop
      vertex 65 37.9604 19.6741
      vertex 0 0 1.2
      vertex 68.75 36.2209 18.8275
    endloop
  endfacet
  facet normal 1.73481e-06 -0.437599 0.89917
    outer loop
      vertex 68.75 36.2209 18.8275
      vertex 0 0 1.2
      vertex 72.5 34.4949 17.9875
    endloop
  endfacet
  facet normal 5.74175e-06 -0.437606 0.899167
    outer loop
      vertex 72.5 34.4949 17.9875
      vertex 0 0 1.2
      vertex 76.25 32.7852 17.1554
    endloop
  endfacet
  facet normal 2.72066e-06 -0.437597 0.899171
    outer loop
      vertex 0 0 1.2
      vertex 12.35 61.5144 31.137
      vertex 0 65.6311 33.1405
    endloop
  endfacet
  facet normal -5.85564e-06 -0.437584 0.899177
    outer loop
      vertex 76.25 32.7852 17.1554
      vertex 0 0 1.2
      vertex 80 31.0942 16.3325
    endloop
  endfacet
  facet normal 1.18164e-06 -0.437599 0.89917
    outer loop
      vertex 80 31.0942 16.3325
      vertex 0 0 1.2
      vertex 83.75 29.4247 15.52
    endloop
  endfacet
  facet normal 0 -0.437466 0.899235
    outer loop
      vertex 196.25 0.0346772 1.21687
      vertex 0 0 1.2
      vertex 200 0 1.2
    endloop
  endfacet
  facet normal 3.02039e-08 -0.437604 0.899168
    outer loop
      vertex 192.5 0.138709 1.2675
      vertex 0 0 1.2
      vertex 196.25 0.0346772 1.21687
    endloop
  endfacet
  facet normal 2.61331e-08 -0.4376 0.89917
    outer loop
      vertex 188.75 0.311906 1.35179
      vertex 0 0 1.2
      vertex 192.5 0.138709 1.2675
    endloop
  endfacet
  facet normal 2.97695e-08 -0.437601 0.899169
    outer loop
      vertex 185 0.554019 1.46962
      vertex 0 0 1.2
      vertex 188.75 0.311906 1.35179
    endloop
  endfacet
  facet normal 2.14169e-08 -0.437599 0.89917
    outer loop
      vertex 181.25 0.86464 1.62079
      vertex 0 0 1.2
      vertex 185 0.554019 1.46962
    endloop
  endfacet
  facet normal -5.57858e-08 -0.437586 0.899177
    outer loop
      vertex 177.5 1.24333 1.80508
      vertex 0 0 1.2
      vertex 181.25 0.86464 1.62079
    endloop
  endfacet
  facet normal 1.52085e-07 -0.43761 0.899165
    outer loop
      vertex 173.75 1.68949 2.02222
      vertex 0 0 1.2
      vertex 177.5 1.24333 1.80508
    endloop
  endfacet
  facet normal -9.7587e-08 -0.437589 0.899175
    outer loop
      vertex 170 2.20244 2.27185
      vertex 0 0 1.2
      vertex 173.75 1.68949 2.02222
    endloop
  endfacet
  facet normal 5.31855e-09 -0.437596 0.899172
    outer loop
      vertex 166.25 2.78138 2.5536
      vertex 0 0 1.2
      vertex 170 2.20244 2.27185
    endloop
  endfacet
  facet normal -3.52822e-08 -0.437594 0.899173
    outer loop
      vertex 162.5 3.42542 2.86703
      vertex 0 0 1.2
      vertex 166.25 2.78138 2.5536
    endloop
  endfacet
  facet normal 7.70203e-08 -0.437598 0.899171
    outer loop
      vertex 158.75 4.13354 3.21165
      vertex 0 0 1.2
      vertex 162.5 3.42542 2.86703
    endloop
  endfacet
  facet normal -5.00103e-08 -0.437594 0.899173
    outer loop
      vertex 155 4.90469 3.58694
      vertex 0 0 1.2
      vertex 158.75 4.13354 3.21165
    endloop
  endfacet
  facet normal 8.42485e-08 -0.437598 0.899171
    outer loop
      vertex 151.25 5.73766 3.99232
      vertex 0 0 1.2
      vertex 155 4.90469 3.58694
    endloop
  endfacet
  facet normal 1.58898e-07 -0.437599 0.89917
    outer loop
      vertex 147.5 6.63118 4.42717
      vertex 0 0 1.2
      vertex 151.25 5.73766 3.99232
    endloop
  endfacet
  facet normal 1.08624e-07 -0.437598 0.899171
    outer loop
      vertex 143.75 7.58386 4.89081
      vertex 0 0 1.2
      vertex 147.5 6.63118 4.42717
    endloop
  endfacet
  facet normal -1.2373e-07 -0.437595 0.899172
    outer loop
      vertex 140 8.59423 5.38252
      vertex 0 0 1.2
      vertex 143.75 7.58386 4.89081
    endloop
  endfacet
  facet normal 2.78209e-08 -0.437597 0.899171
    outer loop
      vertex 136.25 9.66073 5.90155
      vertex 0 0 1.2
      vertex 140 8.59423 5.38252
    endloop
  endfacet
  facet normal 5.4603e-07 -0.437603 0.899169
    outer loop
      vertex 132.5 10.7817 6.4471
      vertex 0 0 1.2
      vertex 136.25 9.66073 5.90155
    endloop
  endfacet
  facet normal -9.88787e-07 -0.437587 0.899176
    outer loop
      vertex 128.75 11.9555 7.01833
      vertex 0 0 1.2
      vertex 132.5 10.7817 6.4471
    endloop
  endfacet
  facet normal 3.71145e-08 -0.437596 0.899172
    outer loop
      vertex 125 13.1802 7.61435
      vertex 0 0 1.2
      vertex 128.75 11.9555 7.01833
    endloop
  endfacet
  facet normal 1.9324e-06 -0.437611 0.899165
    outer loop
      vertex 121.25 14.4539 8.23425
      vertex 0 0 1.2
      vertex 125 13.1802 7.61435
    endloop
  endfacet
  facet normal -5.88461e-07 -0.437594 0.899173
    outer loop
      vertex 117.5 15.7748 8.87708
      vertex 0 0 1.2
      vertex 121.25 14.4539 8.23425
    endloop
  endfacet
  facet normal -1.78161e-06 -0.437586 0.899176
    outer loop
      vertex 113.75 17.1408 9.54184
      vertex 0 0 1.2
      vertex 117.5 15.7748 8.87708
    endloop
  endfacet
  facet normal 3.11057e-06 -0.437613 0.899164
    outer loop
      vertex 110 18.5496 10.2275
      vertex 0 0 1.2
      vertex 113.75 17.1408 9.54184
    endloop
  endfacet
  facet normal -1.66445e-06 -0.43759 0.899175
    outer loop
      vertex 106.25 19.9993 10.933
      vertex 0 0 1.2
      vertex 110 18.5496 10.2275
    endloop
  endfacet
  facet normal -5.04916e-07 -0.437595 0.899172
    outer loop
      vertex 102.5 21.4876 11.6573
      vertex 0 0 1.2
      vertex 106.25 19.9993 10.933
    endloop
  endfacet
  facet normal 2.05902e-06 -0.437605 0.899167
    outer loop
      vertex 98.75 23.012 12.3992
      vertex 0 0 1.2
      vertex 102.5 21.4876 11.6573
    endloop
  endfacet
  facet normal -1.99341e-06 -0.437591 0.899174
    outer loop
      vertex 95 24.5704 13.1576
      vertex 0 0 1.2
      vertex 98.75 23.012 12.3992
    endloop
  endfacet
  facet normal 4.39001e-06 -0.437611 0.899165
    outer loop
      vertex 91.25 26.1603 13.9314
      vertex 0 0 1.2
      vertex 95 24.5704 13.1576
    endloop
  endfacet
  facet normal -6.50765e-06 -0.43758 0.89918
    outer loop
      vertex 87.5 27.7792 14.7192
      vertex 0 0 1.2
      vertex 91.25 26.1603 13.9314
    endloop
  endfacet
  facet normal -9.42968e-07 -0.437594 0.899173
    outer loop
      vertex 83.75 29.4247 15.52
      vertex 0 0 1.2
      vertex 87.5 27.7792 14.7192
    endloop
  endfacet
  facet normal 0 1 -0
    outer loop
      vertex 200 150 0
      vertex 196.25 150 1.21687
      vertex 200 150 1.2
    endloop
  endfacet
  facet normal 0 1 0
    outer loop
      vertex 200 150 0
      vertex 192.5 150 1.2675
      vertex 196.25 150 1.21687
    endloop
  endfacet
  facet normal 0 1 0
    outer loop
      vertex 200 150 0
      vertex 188.75 150 1.35179
      vertex 192.5 150 1.2675
    endloop
  endfacet
  facet normal 0 1 0
    outer loop
      vertex 200 150 0
      vertex 185 150 1.46962
      vertex 188.75 150 1.35179
    endloop
  endfacet
  facet normal 0 1 0
    outer loop
      vertex 200 150 0
      vertex 181.25 150 1.62079
      vertex 185 150 1.46962
    endloop
  endfacet
  facet normal 0 1 0
    outer loop
      vertex 200 150 0
      vertex 177.5 150 1.80508
      vertex 181.25 150 1.62079
    endloop
  endfacet
  facet normal 0 1 0
    outer loop
      vertex 200 150 0
      vertex 173.75 150 2.02222
      vertex 177.5 150 1.80508
    endloop
  endfacet
  facet normal 0 1 0
    outer loop
      vertex 59 150 0
      vertex 173.75 150 2.02222
      vertex 200 150 0
    endloop
  endfacet
  facet normal 0 1 0
    outer loop
      vertex 173.75 150 2.02222
      vertex 59 150 0
      vertex 170 150 2.27185
    endloop
  endfacet
  facet normal 0 1 0
    outer loop
      vertex 61.25 150 20.5259
      vertex 59 150 0
      vertex 59 150 21.0394
    endloop
  endfacet
  facet normal 0 1 0
    outer loop
      vertex 65 150 19.6741
      vertex 59 150 0
      vertex 61.25 150 20.5259
    endloop
  endfacet
  facet normal 0 1 0
    outer loop
      vertex 68.75 150 18.8275
      vertex 59 150 0
      vertex 65 150 19.6741
    endloop
  endfacet
  facet normal 0 1 0
    outer loop
      vertex 72.5 150 17.9875
      vertex 59 150 0
      vertex 68.75 150 18.8275
    endloop
  endfacet
  facet normal 0 1 0
    outer loop
      vertex 76.25 150 17.1554
      vertex 59 150 0
      vertex 72.5 150 17.9875
    endloop
  endfacet
  facet normal 0 1 0
    outer loop
      vertex 80 150 16.3325
      vertex 59 150 0
      vertex 76.25 150 17.1554
    endloop
  endfacet
  facet normal 0 1 0
    outer loop
      vertex 83.75 150 15.52
      vertex 59 150 0
      vertex 80 150 16.3325
    endloop
  endfacet
  facet normal 0 1 0
    outer loop
      vertex 87.5 150 14.7192
      vertex 59 150 0
      vertex 83.75 150 15.52
    endloop
  endfacet
  facet normal 0 1 0
    outer loop
      vertex 91.25 150 13.9314
      vertex 59 150 0
      vertex 87.5 150 14.7192
    endloop
  endfacet
  facet normal 0 1 0
    outer loop
      vertex 95 150 13.1576
      vertex 59 150 0
      vertex 91.25 150 13.9314
    endloop
  endfacet
  facet normal 0 1 0
    outer loop
      vertex 98.75 150 12.3992
      vertex 59 150 0
      vertex 95 150 13.1576
    endloop
  endfacet
  facet normal 0 1 0
    outer loop
      vertex 102.5 150 11.6573
      vertex 59 150 0
      vertex 98.75 150 12.3992
    endloop
  endfacet
  facet normal 0 1 0
    outer loop
      vertex 106.25 150 10.933
      vertex 59 150 0
      vertex 102.5 150 11.6573
    endloop
  endfacet
  facet normal 0 1 0
    outer loop
      vertex 110 150 10.2275
      vertex 59 150 0
      vertex 106.25 150 10.933
    endloop
  endfacet
  facet normal 0 1 0
    outer loop
      vertex 113.75 150 9.54184
      vertex 59 150 0
      vertex 110 150 10.2275
    endloop
  endfacet
  facet normal 0 1 0
    outer loop
      vertex 117.5 150 8.87708
      vertex 59 150 0
      vertex 113.75 150 9.54184
    endloop
  endfacet
  facet normal 0 1 0
    outer loop
      vertex 121.25 150 8.23425
      vertex 59 150 0
      vertex 117.5 150 8.87708
    endloop
  endfacet
  facet normal 0 1 0
    outer loop
      vertex 125 150 7.61435
      vertex 59 150 0
      vertex 121.25 150 8.23425
    endloop
  endfacet
  facet normal 0 1 0
    outer loop
      vertex 128.75 150 7.01833
      vertex 59 150 0
      vertex 125 150 7.61435
    endloop
  endfacet
  facet normal 0 1 0
    outer loop
      vertex 132.5 150 6.4471
      vertex 59 150 0
      vertex 128.75 150 7.01833
    endloop
  endfacet
  facet normal 0 1 0
    outer loop
      vertex 136.25 150 5.90155
      vertex 59 150 0
      vertex 132.5 150 6.4471
    endloop
  endfacet
  facet normal 0 1 0
    outer loop
      vertex 140 150 5.38252
      vertex 59 150 0
      vertex 136.25 150 5.90155
    endloop
  endfacet
  facet normal 0 1 0
    outer loop
      vertex 143.75 150 4.89081
      vertex 59 150 0
      vertex 140 150 5.38252
    endloop
  endfacet
  facet normal 0 1 0
    outer loop
      vertex 147.5 150 4.42717
      vertex 59 150 0
      vertex 143.75 150 4.89081
    endloop
  endfacet
  facet normal 0 1 0
    outer loop
      vertex 151.25 150 3.99232
      vertex 59 150 0
      vertex 147.5 150 4.42717
    endloop
  endfacet
  facet normal 0 1 0
    outer loop
      vertex 155 150 3.58694
      vertex 59 150 0
      vertex 151.25 150 3.99232
    endloop
  endfacet
  facet normal 0 1 0
    outer loop
      vertex 158.75 150 3.21165
      vertex 59 150 0
      vertex 155 150 3.58694
    endloop
  endfacet
  facet normal 0 1 0
    outer loop
      vertex 162.5 150 2.86703
      vertex 59 150 0
      vertex 158.75 150 3.21165
    endloop
  endfacet
  facet normal 0 1 0
    outer loop
      vertex 166.25 150 2.5536
      vertex 59 150 0
      vertex 162.5 150 2.86703
    endloop
  endfacet
  facet normal 0 1 0
    outer loop
      vertex 170 150 2.27185
      vertex 59 150 0
      vertex 166.25 150 2.5536
    endloop
  endfacet
  facet normal 0.948683 -0.316228 0
    outer loop
      vertex 61.25 156.75 20.5259
      vertex 63 162 0
      vertex 63 162 20.1284
    endloop
  endfacet
  facet normal 0.948683 -0.316228 0
    outer loop
      vertex 59 150 0
      vertex 61.25 156.75 20.5259
      vertex 59 150 21.0394
    endloop
  endfacet
  facet normal 0.948683 -0.316228 0
    outer loop
      vertex 61.25 156.75 20.5259
      vertex 59 150 0
      vertex 63 162 0
    endloop
  endfacet
  facet normal 0 1 0
    outer loop
      vertex 37 162 0
      vertex 38.75 162 25.6741
      vertex 42.5 162 24.8183
    endloop
  endfacet
  facet normal 0 1 0
    outer loop
      vertex 37 162 0
      vertex 42.5 162 24.8183
      vertex 46.25 162 23.9598
    endloop
  endfacet
  facet normal 0 1 0
    outer loop
      vertex 37 162 0
      vertex 46.25 162 23.9598
      vertex 53.75 162 22.2402
    endloop
  endfacet
  facet normal 0 1 0
    outer loop
      vertex 63 162 0
      vertex 53.75 162 22.2402
      vertex 57.5 162 21.3817
    endloop
  endfacet
  facet normal 0 1 -0
    outer loop
      vertex 63 162 0
      vertex 61.25 162 20.5259
      vertex 63 162 20.1284
    endloop
  endfacet
  facet normal 0 1 0
    outer loop
      vertex 63 162 0
      vertex 57.5 162 21.3817
      vertex 61.25 162 20.5259
    endloop
  endfacet
  facet normal 0 1 0
    outer loop
      vertex 53.75 162 22.2402
      vertex 63 162 0
      vertex 37 162 0
    endloop
  endfacet
  facet normal 0 1 0
    outer loop
      vertex 38.75 162 25.6741
      vertex 37 162 0
      vertex 37 162 26.0716
    endloop
  endfacet
  facet normal -0.948683 -0.316228 0
    outer loop
      vertex 37 162 0
      vertex 38.75 156.75 25.6741
      vertex 37 162 26.0716
    endloop
  endfacet
  facet normal -0.948683 -0.316228 0
    outer loop
      vertex 41 150 0
      vertex 38.75 156.75 25.6741
      vertex 37 162 0
    endloop
  endfacet
  facet normal -0.948683 -0.316228 0
    outer loop
      vertex 38.75 156.75 25.6741
      vertex 41 150 0
      vertex 41 150 25.1606
    endloop
  endfacet
  facet normal 0 1 0
    outer loop
      vertex 0 150 0
      vertex 1.25 150 33.8008
      vertex 5 150 33.0424
    endloop
  endfacet
  facet normal 0 1 0
    outer loop
      vertex 0 150 0
      vertex 5 150 33.0424
      vertex 8.75 150 32.2686
    endloop
  endfacet
  facet normal 0 1 0
    outer loop
      vertex 0 150 0
      vertex 8.75 150 32.2686
      vertex 12.5 150 31.4808
    endloop
  endfacet
  facet normal 0 1 0
    outer loop
      vertex 0 150 0
      vertex 12.5 150 31.4808
      vertex 16.25 150 30.68
    endloop
  endfacet
  facet normal 0 1 0
    outer loop
      vertex 0 150 0
      vertex 16.25 150 30.68
      vertex 20 150 29.8675
    endloop
  endfacet
  facet normal 0 1 0
    outer loop
      vertex 0 150 0
      vertex 20 150 29.8675
      vertex 23.75 150 29.0445
    endloop
  endfacet
  facet normal 0 1 0
    outer loop
      vertex 41 150 0
      vertex 23.75 150 29.0445
      vertex 27.5 150 28.2124
    endloop
  endfacet
  facet normal 0 1 0
    outer loop
      vertex 41 150 0
      vertex 27.5 150 28.2124
      vertex 31.25 150 27.3725
    endloop
  endfacet
  facet normal 0 1 0
    outer loop
      vertex 41 150 0
      vertex 31.25 150 27.3725
      vertex 35 150 26.5259
    endloop
  endfacet
  facet normal 0 1 0
    outer loop
      vertex 41 150 0
      vertex 35 150 26.5259
      vertex 38.75 150 25.6741
    endloop
  endfacet
  facet normal 0 1 -0
    outer loop
      vertex 41 150 0
      vertex 38.75 150 25.6741
      vertex 41 150 25.1606
    endloop
  endfacet
  facet normal 0 1 0
    outer loop
      vertex 23.75 150 29.0445
      vertex 41 150 0
      vertex 0 150 0
    endloop
  endfacet
  facet normal 0 1 0
    outer loop
      vertex 1.25 150 33.8008
      vertex 0 150 0
      vertex 0 150 34.0481
    endloop
  endfacet
  facet normal -1 0 0
    outer loop
      vertex 0 84.3689 0
      vertex 0 150 34.0481
      vertex 0 150 0
    endloop
  endfacet
  facet normal -1 -0 0
    outer loop
      vertex 0 150 34.0481
      vertex 0 84.3689 0
      vertex 0 84.3689 34.0481
    endloop
  endfacet
  facet normal 0.316251 -0.948676 0
    outer loop
      vertex 0 84.3689 0
      vertex 1.25 84.7856 33.8008
      vertex 0 84.3689 34.0481
    endloop
  endfacet
  facet normal 0.316228 -0.948683 9.28618e-07
    outer loop
      vertex 1.25 84.7856 33.8008
      vertex 0 84.3689 0
      vertex 5 86.0356 33.0424
    endloop
  endfacet
  facet normal 0.316228 -0.948683 9.28058e-07
    outer loop
      vertex 5 86.0356 33.0424
      vertex 0 84.3689 0
      vertex 8.75 87.2856 32.2686
    endloop
  endfacet
  facet normal 0.31623 -0.948683 2.85664e-07
    outer loop
      vertex 12.35 88.4856 0
      vertex 8.75 87.2856 32.2686
      vertex 0 84.3689 0
    endloop
  endfacet
  facet normal 0.316228 -0.948683 0
    outer loop
      vertex 8.75 87.2856 32.2686
      vertex 12.35 88.4856 0
      vertex 12.35 88.4856 31.5123
    endloop
  endfacet
  facet normal -1 0 0
    outer loop
      vertex 12.35 88.4856 0
      vertex 12.35 62.2855 31.5123
      vertex 12.35 88.4856 31.5123
    endloop
  endfacet
  facet normal -1 0 0
    outer loop
      vertex 12.35 61.5144 0
      vertex 12.35 62.2855 31.5123
      vertex 12.35 88.4856 0
    endloop
  endfacet
  facet normal -1 0 0
    outer loop
      vertex 12.35 62.2855 31.5123
      vertex 12.35 61.5144 0
      vertex 12.35 61.5144 31.137
    endloop
  endfacet
  facet normal 0.31623 0.948683 0
    outer loop
      vertex 0 65.6311 0
      vertex 12.35 61.5144 31.137
      vertex 12.35 61.5144 0
    endloop
  endfacet
  facet normal 0.31623 0.948683 0
    outer loop
      vertex 12.35 61.5144 31.137
      vertex 0 65.6311 0
      vertex 0 65.6311 33.1405
    endloop
  endfacet
  facet normal -1 0 0
    outer loop
      vertex 0 0 1.2
      vertex 0 65.6311 0
      vertex 0 0 0
    endloop
  endfacet
  facet normal -1 0 0
    outer loop
      vertex 0 65.6311 0
      vertex 0 0 1.2
      vertex 0 65.6311 33.1405
    endloop
  endfacet
endsolid OpenSCAD_Model
