solid OpenSCAD_Model
  facet normal -0.179868 0 0.983691
    outer loop
      vertex 210 62.6667 35.9725
      vertex 212 77.7983 36.3382
      vertex 210 78.5497 35.9725
    endloop
  endfacet
  facet normal -0.179868 0 0.983691
    outer loop
      vertex 212 77.7983 36.3382
      vertex 210 62.6667 35.9725
      vertex 212 62 36.3382
    endloop
  endfacet
  facet normal -0.18489 0 0.982759
    outer loop
      vertex 206.25 63.9167 35.267
      vertex 210 78.5497 35.9725
      vertex 206.25 79.9994 35.267
    endloop
  endfacet
  facet normal -0.18489 0 0.982759
    outer loop
      vertex 210 78.5497 35.9725
      vertex 206.25 63.9167 35.267
      vertex 210 62.6667 35.9725
    endloop
  endfacet
  facet normal -0.189642 0 0.981853
    outer loop
      vertex 202.5 65.1667 34.5427
      vertex 206.25 79.9994 35.267
      vertex 202.5 81.4876 34.5427
    endloop
  endfacet
  facet normal -0.189642 0 0.981853
    outer loop
      vertex 206.25 79.9994 35.267
      vertex 202.5 65.1667 34.5427
      vertex 206.25 63.9167 35.267
    endloop
  endfacet
  facet normal -0.194078 0 0.980986
    outer loop
      vertex 202.5 81.4876 34.5427
      vertex 200 66 34.0481
      vertex 202.5 65.1667 34.5427
    endloop
  endfacet
  facet normal -0.194078 -2.81562e-16 0.980986
    outer loop
      vertex 198.75 83.0121 33.8008
      vertex 200 66 34.0481
      vertex 202.5 81.4876 34.5427
    endloop
  endfacet
  facet normal -0.194078 0 0.980986
    outer loop
      vertex 198.75 0 33.8008
      vertex 200 66 34.0481
      vertex 198.75 83.0121 33.8008
    endloop
  endfacet
  facet normal -0.194078 0 0.980986
    outer loop
      vertex 200 66 34.0481
      vertex 198.75 0 33.8008
      vertex 200 0 34.0481
    endloop
  endfacet
  facet normal -0.198227 0 0.980156
    outer loop
      vertex 195 0 33.0424
      vertex 198.75 83.0121 33.8008
      vertex 195 84.5704 33.0424
    endloop
  endfacet
  facet normal -0.198227 0 0.980156
    outer loop
      vertex 198.75 83.0121 33.8008
      vertex 195 0 33.0424
      vertex 198.75 0 33.8008
    endloop
  endfacet
  facet normal -0.202089 0 0.979367
    outer loop
      vertex 191.25 0 32.2686
      vertex 195 84.5704 33.0424
      vertex 191.25 86.1603 32.2686
    endloop
  endfacet
  facet normal -0.202089 0 0.979367
    outer loop
      vertex 195 84.5704 33.0424
      vertex 191.25 0 32.2686
      vertex 195 0 33.0424
    endloop
  endfacet
  facet normal -0.205592 0 0.978638
    outer loop
      vertex 187.5 0 31.4808
      vertex 191.25 86.1603 32.2686
      vertex 187.5 87.7793 31.4808
    endloop
  endfacet
  facet normal -0.205592 0 0.978638
    outer loop
      vertex 191.25 86.1603 32.2686
      vertex 187.5 0 31.4808
      vertex 191.25 0 32.2686
    endloop
  endfacet
  facet normal -0.208838 0 0.97795
    outer loop
      vertex 183.75 0 30.68
      vertex 187.5 87.7793 31.4808
      vertex 183.75 89.4247 30.68
    endloop
  endfacet
  facet normal -0.208838 0 0.97795
    outer loop
      vertex 187.5 87.7793 31.4808
      vertex 183.75 0 30.68
      vertex 187.5 0 31.4808
    endloop
  endfacet
  facet normal -0.211753 0 0.977323
    outer loop
      vertex 180 0 29.8675
      vertex 183.75 89.4247 30.68
      vertex 180 91.0943 29.8675
    endloop
  endfacet
  facet normal -0.211753 0 0.977323
    outer loop
      vertex 183.75 89.4247 30.68
      vertex 180 0 29.8675
      vertex 183.75 0 30.68
    endloop
  endfacet
  facet normal -0.214365 0 0.976754
    outer loop
      vertex 176.25 0 29.0445
      vertex 180 91.0943 29.8675
      vertex 176.25 92.7852 29.0445
    endloop
  endfacet
  facet normal -0.214365 0 0.976754
    outer loop
      vertex 180 91.0943 29.8675
      vertex 176.25 0 29.0445
      vertex 180 0 29.8675
    endloop
  endfacet
  facet normal -0.216624 0 0.976255
    outer loop
      vertex 172.5 0 28.2124
      vertex 176.25 92.7852 29.0445
      vertex 172.5 94.495 28.2124
    endloop
  endfacet
  facet normal -0.216624 0 0.976255
    outer loop
      vertex 176.25 92.7852 29.0445
      vertex 172.5 0 28.2124
      vertex 176.25 0 29.0445
    endloop
  endfacet
  facet normal -0.218559 0 0.975824
    outer loop
      vertex 168.75 0 27.3725
      vertex 172.5 94.495 28.2124
      vertex 168.75 96.221 27.3725
    endloop
  endfacet
  facet normal -0.218559 0 0.975824
    outer loop
      vertex 172.5 94.495 28.2124
      vertex 168.75 0 27.3725
      vertex 172.5 0 28.2124
    endloop
  endfacet
  facet normal -0.220218 0 0.975451
    outer loop
      vertex 165 0 26.5259
      vertex 168.75 96.221 27.3725
      vertex 165 97.9605 26.5259
    endloop
  endfacet
  facet normal -0.220218 0 0.975451
    outer loop
      vertex 168.75 96.221 27.3725
      vertex 165 0 26.5259
      vertex 168.75 0 27.3725
    endloop
  endfacet
  facet normal -0.221565 0 0.975146
    outer loop
      vertex 165 97.9605 26.5259
      vertex 163.486 12.35 26.1819
      vertex 165 0 26.5259
    endloop
  endfacet
  facet normal -0.221504 0 0.975159
    outer loop
      vertex 161.25 12.35 25.6741
      vertex 165 97.9605 26.5259
      vertex 161.25 99.7108 25.6741
    endloop
  endfacet
  facet normal -0.221463 -1.90933e-06 0.975169
    outer loop
      vertex 165 97.9605 26.5259
      vertex 161.25 12.35 25.6741
      vertex 163.486 12.35 26.1819
    endloop
  endfacet
  facet normal -0.22149 9.67709e-06 0.975163
    outer loop
      vertex 161.25 5.64322 25.6741
      vertex 165 0 26.5259
      vertex 163.486 12.35 26.1819
    endloop
  endfacet
  facet normal -0.221504 0 0.975159
    outer loop
      vertex 165 0 26.5259
      vertex 161.25 5.64322 25.6741
      vertex 161.25 0 25.6741
    endloop
  endfacet
  facet normal -0.222493 0 0.974934
    outer loop
      vertex 157.5 12.35 24.8183
      vertex 161.25 99.7108 25.6741
      vertex 157.5 101.469 24.8183
    endloop
  endfacet
  facet normal -0.222493 0 0.974934
    outer loop
      vertex 161.25 99.7108 25.6741
      vertex 157.5 12.35 24.8183
      vertex 161.25 12.35 25.6741
    endloop
  endfacet
  facet normal -0.222508 0 0.974931
    outer loop
      vertex 161.25 0 25.6741
      vertex 161.25 5.64322 25.6741
      vertex 159.369 0 25.2448
    endloop
  endfacet
  facet normal -0.22316 0 0.974782
    outer loop
      vertex 153.75 12.35 23.9598
      vertex 157.5 101.469 24.8183
      vertex 153.75 103.233 23.9598
    endloop
  endfacet
  facet normal -0.22316 0 0.974782
    outer loop
      vertex 157.5 101.469 24.8183
      vertex 153.75 12.35 23.9598
      vertex 157.5 12.35 24.8183
    endloop
  endfacet
  facet normal -0.223481 0 0.974708
    outer loop
      vertex 146.25 12.35 22.2402
      vertex 153.75 103.233 23.9598
      vertex 146.25 106.767 22.2402
    endloop
  endfacet
  facet normal -0.223481 0 0.974708
    outer loop
      vertex 153.75 103.233 23.9598
      vertex 146.25 12.35 22.2402
      vertex 153.75 12.35 23.9598
    endloop
  endfacet
  facet normal -0.22316 0 0.974782
    outer loop
      vertex 142.5 12.35 21.3817
      vertex 146.25 106.767 22.2402
      vertex 142.5 108.531 21.3817
    endloop
  endfacet
  facet normal -0.22316 0 0.974782
    outer loop
      vertex 146.25 106.767 22.2402
      vertex 142.5 12.35 21.3817
      vertex 146.25 12.35 22.2402
    endloop
  endfacet
  facet normal -0.222493 0 0.974934
    outer loop
      vertex 138.75 12.35 20.5259
      vertex 142.5 108.531 21.3817
      vertex 138.75 110.289 20.5259
    endloop
  endfacet
  facet normal -0.222493 0 0.974934
    outer loop
      vertex 142.5 108.531 21.3817
      vertex 138.75 12.35 20.5259
      vertex 142.5 12.35 21.3817
    endloop
  endfacet
  facet normal -0.222508 0 0.974931
    outer loop
      vertex 140.631 0 20.9552
      vertex 138.75 5.64322 20.5259
      vertex 138.75 0 20.5259
    endloop
  endfacet
  facet normal -0.221463 0 0.975169
    outer loop
      vertex 138.75 110.289 20.5259
      vertex 136.514 12.35 20.0181
      vertex 138.75 12.35 20.5259
    endloop
  endfacet
  facet normal -0.221504 9.84653e-07 0.97516
    outer loop
      vertex 136.514 12.35 20.0181
      vertex 138.75 110.289 20.5259
      vertex 135 112.04 19.6741
    endloop
  endfacet
  facet normal -0.22149 -9.67709e-06 0.975163
    outer loop
      vertex 135 0 19.6741
      vertex 138.75 5.64322 20.5259
      vertex 136.514 12.35 20.0181
    endloop
  endfacet
  facet normal -0.221504 0 0.975159
    outer loop
      vertex 138.75 5.64322 20.5259
      vertex 135 0 19.6741
      vertex 138.75 0 20.5259
    endloop
  endfacet
  facet normal -0.221565 0 0.975146
    outer loop
      vertex 135 0 19.6741
      vertex 136.514 12.35 20.0181
      vertex 135 112.04 19.6741
    endloop
  endfacet
  facet normal -0.220218 0 0.975451
    outer loop
      vertex 131.25 0 18.8275
      vertex 135 112.04 19.6741
      vertex 131.25 113.779 18.8275
    endloop
  endfacet
  facet normal -0.220218 0 0.975451
    outer loop
      vertex 135 112.04 19.6741
      vertex 131.25 0 18.8275
      vertex 135 0 19.6741
    endloop
  endfacet
  facet normal -0.218583 0 0.975818
    outer loop
      vertex 127.5 0 17.9875
      vertex 131.25 113.779 18.8275
      vertex 127.5 115.505 17.9875
    endloop
  endfacet
  facet normal -0.218583 0 0.975818
    outer loop
      vertex 131.25 113.779 18.8275
      vertex 127.5 0 17.9875
      vertex 131.25 0 18.8275
    endloop
  endfacet
  facet normal -0.216624 0 0.976255
    outer loop
      vertex 123.75 0 17.1554
      vertex 127.5 115.505 17.9875
      vertex 123.75 117.215 17.1554
    endloop
  endfacet
  facet normal -0.216624 0 0.976255
    outer loop
      vertex 127.5 115.505 17.9875
      vertex 123.75 0 17.1554
      vertex 127.5 0 17.9875
    endloop
  endfacet
  facet normal -0.21434 0 0.976759
    outer loop
      vertex 120 0 16.3325
      vertex 123.75 117.215 17.1554
      vertex 120 118.906 16.3325
    endloop
  endfacet
  facet normal -0.21434 0 0.976759
    outer loop
      vertex 123.75 117.215 17.1554
      vertex 120 0 16.3325
      vertex 123.75 0 17.1554
    endloop
  endfacet
  facet normal -0.211753 0 0.977323
    outer loop
      vertex 116.25 0 15.52
      vertex 120 118.906 16.3325
      vertex 116.25 120.575 15.52
    endloop
  endfacet
  facet normal -0.211753 0 0.977323
    outer loop
      vertex 120 118.906 16.3325
      vertex 116.25 0 15.52
      vertex 120 0 16.3325
    endloop
  endfacet
  facet normal -0.208838 0 0.97795
    outer loop
      vertex 112.5 0 14.7192
      vertex 116.25 120.575 15.52
      vertex 112.5 122.221 14.7192
    endloop
  endfacet
  facet normal -0.208838 0 0.97795
    outer loop
      vertex 116.25 120.575 15.52
      vertex 112.5 0 14.7192
      vertex 116.25 0 15.52
    endloop
  endfacet
  facet normal -0.205592 0 0.978638
    outer loop
      vertex 108.75 0 13.9314
      vertex 112.5 122.221 14.7192
      vertex 108.75 123.84 13.9314
    endloop
  endfacet
  facet normal -0.205592 0 0.978638
    outer loop
      vertex 112.5 122.221 14.7192
      vertex 108.75 0 13.9314
      vertex 112.5 0 14.7192
    endloop
  endfacet
  facet normal -0.202089 0 0.979367
    outer loop
      vertex 105 0 13.1576
      vertex 108.75 123.84 13.9314
      vertex 105 125.43 13.1576
    endloop
  endfacet
  facet normal -0.202089 0 0.979367
    outer loop
      vertex 108.75 123.84 13.9314
      vertex 105 0 13.1576
      vertex 108.75 0 13.9314
    endloop
  endfacet
  facet normal -0.198227 0 0.980156
    outer loop
      vertex 101.25 0 12.3992
      vertex 105 125.43 13.1576
      vertex 101.25 126.988 12.3992
    endloop
  endfacet
  facet normal -0.198227 0 0.980156
    outer loop
      vertex 105 125.43 13.1576
      vertex 101.25 0 12.3992
      vertex 105 0 13.1576
    endloop
  endfacet
  facet normal -0.194078 0 0.980986
    outer loop
      vertex 97.5 0 11.6573
      vertex 101.25 126.988 12.3992
      vertex 97.5 128.512 11.6573
    endloop
  endfacet
  facet normal -0.194078 0 0.980986
    outer loop
      vertex 101.25 126.988 12.3992
      vertex 97.5 0 11.6573
      vertex 101.25 0 12.3992
    endloop
  endfacet
  facet normal -0.189642 0 0.981853
    outer loop
      vertex 93.75 0 10.933
      vertex 97.5 128.512 11.6573
      vertex 93.75 130.001 10.933
    endloop
  endfacet
  facet normal -0.189642 0 0.981853
    outer loop
      vertex 97.5 128.512 11.6573
      vertex 93.75 0 10.933
      vertex 97.5 0 11.6573
    endloop
  endfacet
  facet normal -0.18489 0 0.982759
    outer loop
      vertex 90 0 10.2275
      vertex 93.75 130.001 10.933
      vertex 90 131.45 10.2275
    endloop
  endfacet
  facet normal -0.18489 0 0.982759
    outer loop
      vertex 93.75 130.001 10.933
      vertex 90 0 10.2275
      vertex 93.75 0 10.933
    endloop
  endfacet
  facet normal -0.179861 0 0.983692
    outer loop
      vertex 86.25 0 9.54184
      vertex 90 131.45 10.2275
      vertex 86.25 132.859 9.54184
    endloop
  endfacet
  facet normal -0.179861 0 0.983692
    outer loop
      vertex 90 131.45 10.2275
      vertex 86.25 0 9.54184
      vertex 90 0 10.2275
    endloop
  endfacet
  facet normal -0.174548 0 0.984649
    outer loop
      vertex 82.5 0 8.87708
      vertex 86.25 132.859 9.54184
      vertex 82.5 134.225 8.87708
    endloop
  endfacet
  facet normal -0.174548 0 0.984649
    outer loop
      vertex 86.25 132.859 9.54184
      vertex 82.5 0 8.87708
      vertex 86.25 0 9.54184
    endloop
  endfacet
  facet normal -0.168957 0 0.985623
    outer loop
      vertex 78.75 0 8.23425
      vertex 82.5 134.225 8.87708
      vertex 78.75 135.546 8.23425
    endloop
  endfacet
  facet normal -0.168957 0 0.985623
    outer loop
      vertex 82.5 134.225 8.87708
      vertex 78.75 0 8.23425
      vertex 82.5 0 8.87708
    endloop
  endfacet
  facet normal -0.163093 0 0.986611
    outer loop
      vertex 75 0 7.61435
      vertex 78.75 135.546 8.23425
      vertex 75 136.82 7.61435
    endloop
  endfacet
  facet normal -0.163093 0 0.986611
    outer loop
      vertex 78.75 135.546 8.23425
      vertex 75 0 7.61435
      vertex 78.75 0 8.23425
    endloop
  endfacet
  facet normal -0.156968 0 0.987604
    outer loop
      vertex 71.25 0 7.01833
      vertex 75 136.82 7.61435
      vertex 71.25 138.045 7.01833
    endloop
  endfacet
  facet normal -0.156968 0 0.987604
    outer loop
      vertex 75 136.82 7.61435
      vertex 71.25 0 7.01833
      vertex 75 0 7.61435
    endloop
  endfacet
  facet normal -0.150591 0 0.988596
    outer loop
      vertex 67.5 0 6.4471
      vertex 71.25 138.045 7.01833
      vertex 67.5 139.218 6.4471
    endloop
  endfacet
  facet normal -0.150591 0 0.988596
    outer loop
      vertex 71.25 138.045 7.01833
      vertex 67.5 0 6.4471
      vertex 71.25 0 7.01833
    endloop
  endfacet
  facet normal -0.143965 0 0.989583
    outer loop
      vertex 63.75 0 5.90155
      vertex 67.5 139.218 6.4471
      vertex 63.75 140.339 5.90155
    endloop
  endfacet
  facet normal -0.143965 0 0.989583
    outer loop
      vertex 67.5 139.218 6.4471
      vertex 63.75 0 5.90155
      vertex 67.5 0 6.4471
    endloop
  endfacet
  facet normal -0.137101 0 0.990557
    outer loop
      vertex 60 0 5.38252
      vertex 63.75 140.339 5.90155
      vertex 60 141.406 5.38252
    endloop
  endfacet
  facet normal -0.137101 0 0.990557
    outer loop
      vertex 63.75 140.339 5.90155
      vertex 60 0 5.38252
      vertex 63.75 0 5.90155
    endloop
  endfacet
  facet normal -0.13001 0 0.991513
    outer loop
      vertex 56.25 0 4.89081
      vertex 60 141.406 5.38252
      vertex 56.25 142.416 4.89081
    endloop
  endfacet
  facet normal -0.13001 0 0.991513
    outer loop
      vertex 60 141.406 5.38252
      vertex 56.25 0 4.89081
      vertex 60 0 5.38252
    endloop
  endfacet
  facet normal -0.122703 0 0.992443
    outer loop
      vertex 52.5 0 4.42717
      vertex 56.25 142.416 4.89081
      vertex 52.5 143.369 4.42717
    endloop
  endfacet
  facet normal -0.122703 0 0.992443
    outer loop
      vertex 56.25 142.416 4.89081
      vertex 52.5 0 4.42717
      vertex 56.25 0 4.89081
    endloop
  endfacet
  facet normal -0.115188 0 0.993344
    outer loop
      vertex 48.75 0 3.99232
      vertex 52.5 143.369 4.42717
      vertex 48.75 144.262 3.99232
    endloop
  endfacet
  facet normal -0.115188 0 0.993344
    outer loop
      vertex 52.5 143.369 4.42717
      vertex 48.75 0 3.99232
      vertex 52.5 0 4.42717
    endloop
  endfacet
  facet normal -0.107475 0 0.994208
    outer loop
      vertex 45 0 3.58694
      vertex 48.75 144.262 3.99232
      vertex 45 145.095 3.58694
    endloop
  endfacet
  facet normal -0.107475 0 0.994208
    outer loop
      vertex 48.75 144.262 3.99232
      vertex 45 0 3.58694
      vertex 48.75 0 3.99232
    endloop
  endfacet
  facet normal -0.0995799 0 0.99503
    outer loop
      vertex 41.25 0 3.21165
      vertex 45 145.095 3.58694
      vertex 41.25 145.866 3.21165
    endloop
  endfacet
  facet normal -0.0995799 0 0.99503
    outer loop
      vertex 45 145.095 3.58694
      vertex 41.25 0 3.21165
      vertex 45 0 3.58694
    endloop
  endfacet
  facet normal -0.091513 0 0.995804
    outer loop
      vertex 37.5 0 2.86703
      vertex 41.25 145.866 3.21165
      vertex 37.5 146.575 2.86703
    endloop
  endfacet
  facet normal -0.091513 0 0.995804
    outer loop
      vertex 41.25 145.866 3.21165
      vertex 37.5 0 2.86703
      vertex 41.25 0 3.21165
    endloop
  endfacet
  facet normal -0.0832909 0 0.996525
    outer loop
      vertex 33.75 0 2.5536
      vertex 37.5 146.575 2.86703
      vertex 33.75 147.219 2.5536
    endloop
  endfacet
  facet normal -0.0832909 0 0.996525
    outer loop
      vertex 37.5 146.575 2.86703
      vertex 33.75 0 2.5536
      vertex 37.5 0 2.86703
    endloop
  endfacet
  facet normal -0.0749222 0 0.997189
    outer loop
      vertex 30 0 2.27185
      vertex 33.75 147.219 2.5536
      vertex 30 147.798 2.27185
    endloop
  endfacet
  facet normal -0.0749222 0 0.997189
    outer loop
      vertex 33.75 147.219 2.5536
      vertex 30 0 2.27185
      vertex 33.75 0 2.5536
    endloop
  endfacet
  facet normal -0.066421 0 0.997792
    outer loop
      vertex 26.25 0 2.02222
      vertex 30 147.798 2.27185
      vertex 26.25 148.311 2.02222
    endloop
  endfacet
  facet normal -0.066421 0 0.997792
    outer loop
      vertex 30 147.798 2.27185
      vertex 26.25 0 2.02222
      vertex 30 0 2.27185
    endloop
  endfacet
  facet normal -0.0578072 0 0.998328
    outer loop
      vertex 22.5 0 1.80508
      vertex 26.25 148.311 2.02222
      vertex 22.5 148.757 1.80508
    endloop
  endfacet
  facet normal -0.0578072 0 0.998328
    outer loop
      vertex 26.25 148.311 2.02222
      vertex 22.5 0 1.80508
      vertex 26.25 0 2.02222
    endloop
  endfacet
  facet normal -0.0490848 0 0.998795
    outer loop
      vertex 18.75 0 1.62079
      vertex 22.5 148.757 1.80508
      vertex 18.75 149.135 1.62079
    endloop
  endfacet
  facet normal -0.0490848 0 0.998795
    outer loop
      vertex 22.5 148.757 1.80508
      vertex 18.75 0 1.62079
      vertex 22.5 0 1.80508
    endloop
  endfacet
  facet normal -0.0402793 0 0.999188
    outer loop
      vertex 15 0 1.46962
      vertex 18.75 149.135 1.62079
      vertex 15 149.446 1.46962
    endloop
  endfacet
  facet normal -0.0402793 0 0.999188
    outer loop
      vertex 18.75 149.135 1.62079
      vertex 15 0 1.46962
      vertex 18.75 0 1.62079
    endloop
  endfacet
  facet normal -0.0314058 0 0.999507
    outer loop
      vertex 11.25 0 1.35179
      vertex 15 149.446 1.46962
      vertex 11.25 149.688 1.35179
    endloop
  endfacet
  facet normal -0.0314058 0 0.999507
    outer loop
      vertex 15 149.446 1.46962
      vertex 11.25 0 1.35179
      vertex 15 0 1.46962
    endloop
  endfacet
  facet normal -0.0224717 0 0.999747
    outer loop
      vertex 7.5 0 1.2675
      vertex 11.25 149.688 1.35179
      vertex 7.5 149.861 1.2675
    endloop
  endfacet
  facet normal -0.0224717 0 0.999747
    outer loop
      vertex 11.25 149.688 1.35179
      vertex 7.5 0 1.2675
      vertex 11.25 0 1.35179
    endloop
  endfacet
  facet normal -0.0135001 0 0.999909
    outer loop
      vertex 3.75 0 1.21687
      vertex 7.5 149.861 1.2675
      vertex 3.75 149.965 1.21687
    endloop
  endfacet
  facet normal -0.0135001 0 0.999909
    outer loop
      vertex 7.5 149.861 1.2675
      vertex 3.75 0 1.21687
      vertex 7.5 0 1.2675
    endloop
  endfacet
  facet normal -0.00449862 0 0.99999
    outer loop
      vertex 0 150 1.2
      vertex 3.75 0 1.21687
      vertex 3.75 149.965 1.21687
    endloop
  endfacet
  facet normal -0.00449862 0 0.99999
    outer loop
      vertex 3.75 0 1.21687
      vertex 0 150 1.2
      vertex 0 0 1.2
    endloop
  endfacet
  facet normal -1 0 0
    outer loop
      vertex 0 0 0
      vertex 0 150 1.2
      vertex 0 150 0
    endloop
  endfacet
  facet normal -1 -0 0
    outer loop
      vertex 0 150 1.2
      vertex 0 0 0
      vertex 0 0 1.2
    endloop
  endfacet
  facet normal 0 0 -1
    outer loop
      vertex 140.631 0 0
      vertex 0 0 0
      vertex 136.514 12.35 0
    endloop
  endfacet
  facet normal 0 0 -1
    outer loop
      vertex 163.486 12.35 0
      vertex 200 66 0
      vertex 200 0 0
    endloop
  endfacet
  facet normal 0 0 -1
    outer loop
      vertex 136.514 12.35 0
      vertex 200 66 0
      vertex 163.486 12.35 0
    endloop
  endfacet
  facet normal -0 0 -1
    outer loop
      vertex 200 66 0
      vertex 136.514 12.35 0
      vertex 200 84 0
    endloop
  endfacet
  facet normal 0 -0 -1
    outer loop
      vertex 163.486 12.35 0
      vertex 200 0 0
      vertex 159.369 0 0
    endloop
  endfacet
  facet normal 0 0 -1
    outer loop
      vertex 200 66 0
      vertex 212 88 0
      vertex 212 62 0
    endloop
  endfacet
  facet normal 0 0 -1
    outer loop
      vertex 212 88 0
      vertex 200 66 0
      vertex 200 84 0
    endloop
  endfacet
  facet normal 0 0 -1
    outer loop
      vertex 0 150 0
      vertex 200 84 0
      vertex 136.514 12.35 0
    endloop
  endfacet
  facet normal 0 0 -1
    outer loop
      vertex 0 150 0
      vertex 136.514 12.35 0
      vertex 0 0 0
    endloop
  endfacet
  facet normal 0 0 -1
    outer loop
      vertex 200 84 0
      vertex 0 150 0
      vertex 200 150 0
    endloop
  endfacet
  facet normal 0 1 -0
    outer loop
      vertex 200 150 0
      vertex 0 150 1.2
      vertex 200 150 1.2
    endloop
  endfacet
  facet normal 0 1 0
    outer loop
      vertex 0 150 1.2
      vertex 200 150 0
      vertex 0 150 0
    endloop
  endfacet
  facet normal -5.54917e-06 0.437597 0.899171
    outer loop
      vertex 191.25 86.1603 32.2686
      vertex 200 84 33.32
      vertex 200 150 1.2
    endloop
  endfacet
  facet normal 1.15806e-06 0.437612 0.899164
    outer loop
      vertex 200 84 33.32
      vertex 195 84.5704 33.0424
      vertex 198.75 83.0121 33.8008
    endloop
  endfacet
  facet normal 2.98352e-06 0.437625 0.899158
    outer loop
      vertex 200 84 33.32
      vertex 191.25 86.1603 32.2686
      vertex 195 84.5704 33.0424
    endloop
  endfacet
  facet normal 2.53468e-05 0.437593 0.899173
    outer loop
      vertex 200 150 1.2
      vertex 187.5 87.7793 31.4808
      vertex 191.25 86.1603 32.2686
    endloop
  endfacet
  facet normal -8.17464e-06 0.437599 0.89917
    outer loop
      vertex 200 150 1.2
      vertex 183.75 89.4247 30.68
      vertex 187.5 87.7793 31.4808
    endloop
  endfacet
  facet normal 8.40427e-06 0.437595 0.899172
    outer loop
      vertex 200 150 1.2
      vertex 180 91.0943 29.8675
      vertex 183.75 89.4247 30.68
    endloop
  endfacet
  facet normal -1.94698e-05 0.437603 0.899168
    outer loop
      vertex 200 150 1.2
      vertex 176.25 92.7852 29.0445
      vertex 180 91.0943 29.8675
    endloop
  endfacet
  facet normal 3.20746e-07 0.437596 0.899172
    outer loop
      vertex 200 150 1.2
      vertex 172.5 94.495 28.2124
      vertex 176.25 92.7852 29.0445
    endloop
  endfacet
  facet normal 1.67196e-05 0.43759 0.899175
    outer loop
      vertex 200 150 1.2
      vertex 168.75 96.221 27.3725
      vertex 172.5 94.495 28.2124
    endloop
  endfacet
  facet normal -7.85854e-06 0.437601 0.899169
    outer loop
      vertex 200 150 1.2
      vertex 165 97.9605 26.5259
      vertex 168.75 96.221 27.3725
    endloop
  endfacet
  facet normal 2.37294e-06 0.437596 0.899172
    outer loop
      vertex 200 150 1.2
      vertex 161.25 99.7108 25.6741
      vertex 165 97.9605 26.5259
    endloop
  endfacet
  facet normal -2.499e-05 0.437613 0.899164
    outer loop
      vertex 200 150 1.2
      vertex 157.5 101.469 24.8183
      vertex 161.25 99.7108 25.6741
    endloop
  endfacet
  facet normal -4.13716e-06 0.437598 0.899171
    outer loop
      vertex 200 150 1.2
      vertex 153.75 103.233 23.9598
      vertex 157.5 101.469 24.8183
    endloop
  endfacet
  facet normal 2.20336e-05 0.437577 0.899181
    outer loop
      vertex 200 150 1.2
      vertex 146.25 106.767 22.2402
      vertex 153.75 103.233 23.9598
    endloop
  endfacet
  facet normal -2.16167e-06 0.437601 0.899169
    outer loop
      vertex 200 150 1.2
      vertex 142.5 108.531 21.3817
      vertex 146.25 106.767 22.2402
    endloop
  endfacet
  facet normal -3.41364e-05 0.437637 0.899152
    outer loop
      vertex 200 150 1.2
      vertex 138.75 110.289 20.5259
      vertex 142.5 108.531 21.3817
    endloop
  endfacet
  facet normal 4.85154e-05 0.437534 0.899202
    outer loop
      vertex 200 150 1.2
      vertex 135 112.04 19.6741
      vertex 138.75 110.289 20.5259
    endloop
  endfacet
  facet normal -3.68836e-05 0.437652 0.899144
    outer loop
      vertex 200 150 1.2
      vertex 131.25 113.779 18.8275
      vertex 135 112.04 19.6741
    endloop
  endfacet
  facet normal -2.03159e-06 0.437599 0.89917
    outer loop
      vertex 200 150 1.2
      vertex 127.5 115.505 17.9875
      vertex 131.25 113.779 18.8275
    endloop
  endfacet
  facet normal 1.18391e-05 0.437575 0.899182
    outer loop
      vertex 200 150 1.2
      vertex 123.75 117.215 17.1554
      vertex 127.5 115.505 17.9875
    endloop
  endfacet
  facet normal 6.44318e-06 0.437585 0.899177
    outer loop
      vertex 200 150 1.2
      vertex 120 118.906 16.3325
      vertex 123.75 117.215 17.1554
    endloop
  endfacet
  facet normal -2.77968e-05 0.437657 0.899142
    outer loop
      vertex 200 150 1.2
      vertex 116.25 120.575 15.52
      vertex 120 118.906 16.3325
    endloop
  endfacet
  facet normal 2.60128e-05 0.437533 0.899202
    outer loop
      vertex 200 150 1.2
      vertex 112.5 122.221 14.7192
      vertex 116.25 120.575 15.52
    endloop
  endfacet
  facet normal 1.20287e-05 0.437568 0.899185
    outer loop
      vertex 200 150 1.2
      vertex 108.75 123.84 13.9314
      vertex 112.5 122.221 14.7192
    endloop
  endfacet
  facet normal 1.17578e-06 0.437599 0.89917
    outer loop
      vertex 200 150 1.2
      vertex 105 125.43 13.1576
      vertex 108.75 123.84 13.9314
    endloop
  endfacet
  facet normal -1.47789e-05 0.437649 0.899146
    outer loop
      vertex 200 150 1.2
      vertex 101.25 126.988 12.3992
      vertex 105 125.43 13.1576
    endloop
  endfacet
  facet normal -1.90695e-05 0.437664 0.899139
    outer loop
      vertex 200 150 1.2
      vertex 97.5 128.512 11.6573
      vertex 101.25 126.988 12.3992
    endloop
  endfacet
  facet normal 2.76139e-05 0.437484 0.899226
    outer loop
      vertex 200 150 1.2
      vertex 93.75 130.001 10.933
      vertex 97.5 128.512 11.6573
    endloop
  endfacet
  facet normal -2.42596e-05 0.437706 0.899118
    outer loop
      vertex 200 150 1.2
      vertex 90 131.45 10.2275
      vertex 93.75 130.001 10.933
    endloop
  endfacet
  facet normal 3.02126e-06 0.437576 0.899182
    outer loop
      vertex 200 150 1.2
      vertex 86.25 132.859 9.54184
      vertex 90 131.45 10.2275
    endloop
  endfacet
  facet normal 1.23737e-06 0.437585 0.899177
    outer loop
      vertex 200 150 1.2
      vertex 82.5 134.225 8.87708
      vertex 86.25 132.859 9.54184
    endloop
  endfacet
  facet normal 3.26929e-06 0.437573 0.899183
    outer loop
      vertex 200 150 1.2
      vertex 78.75 135.546 8.23425
      vertex 82.5 134.225 8.87708
    endloop
  endfacet
  facet normal 6.89408e-06 0.437548 0.899195
    outer loop
      vertex 200 150 1.2
      vertex 75 136.82 7.61435
      vertex 78.75 135.546 8.23425
    endloop
  endfacet
  facet normal 9.03487e-06 0.437532 0.899203
    outer loop
      vertex 200 150 1.2
      vertex 71.25 138.045 7.01833
      vertex 75 136.82 7.61435
    endloop
  endfacet
  facet normal -1.90672e-05 0.437777 0.899084
    outer loop
      vertex 200 150 1.2
      vertex 67.5 139.218 6.4471
      vertex 71.25 138.045 7.01833
    endloop
  endfacet
  facet normal -5.75768e-07 0.437593 0.899173
    outer loop
      vertex 200 150 1.2
      vertex 63.75 140.339 5.90155
      vertex 67.5 139.218 6.4471
    endloop
  endfacet
  facet normal 1.09182e-05 0.437462 0.899237
    outer loop
      vertex 200 150 1.2
      vertex 60 141.406 5.38252
      vertex 63.75 140.339 5.90155
    endloop
  endfacet
  facet normal -7.3044e-06 0.437702 0.89912
    outer loop
      vertex 200 150 1.2
      vertex 56.25 142.416 4.89081
      vertex 60 141.406 5.38252
    endloop
  endfacet
  facet normal 5.95826e-06 0.437499 0.899219
    outer loop
      vertex 200 150 1.2
      vertex 52.5 143.369 4.42717
      vertex 56.25 142.416 4.89081
    endloop
  endfacet
  facet normal -9.34514e-06 0.437774 0.899085
    outer loop
      vertex 200 150 1.2
      vertex 48.75 144.262 3.99232
      vertex 52.5 143.369 4.42717
    endloop
  endfacet
  facet normal -4.1378e-07 0.437584 0.899178
    outer loop
      vertex 200 150 1.2
      vertex 45 145.095 3.58694
      vertex 48.75 144.262 3.99232
    endloop
  endfacet
  facet normal -3.0431e-06 0.437651 0.899145
    outer loop
      vertex 200 150 1.2
      vertex 41.25 145.866 3.21165
      vertex 45 145.095 3.58694
    endloop
  endfacet
  facet normal 1.12425e-05 0.437207 0.899361
    outer loop
      vertex 200 150 1.2
      vertex 37.5 146.575 2.86703
      vertex 41.25 145.866 3.21165
    endloop
  endfacet
  facet normal 5.32408e-07 0.437618 0.899161
    outer loop
      vertex 200 150 1.2
      vertex 33.75 147.219 2.5536
      vertex 37.5 146.575 2.86703
    endloop
  endfacet
  facet normal 1.58156e-06 0.437567 0.899186
    outer loop
      vertex 200 150 1.2
      vertex 30 147.798 2.27185
      vertex 33.75 147.219 2.5536
    endloop
  endfacet
  facet normal 1.63689e-06 0.437564 0.899187
    outer loop
      vertex 200 150 1.2
      vertex 26.25 148.311 2.02222
      vertex 30 147.798 2.27185
    endloop
  endfacet
  facet normal -4.21953e-07 0.437735 0.899104
    outer loop
      vertex 200 150 1.2
      vertex 22.5 148.757 1.80508
      vertex 26.25 148.311 2.02222
    endloop
  endfacet
  facet normal -4.41233e-06 0.438196 0.89888
    outer loop
      vertex 200 150 1.2
      vertex 18.75 149.135 1.62079
      vertex 22.5 148.757 1.80508
    endloop
  endfacet
  facet normal 1.56361e-06 0.437183 0.899372
    outer loop
      vertex 200 150 1.2
      vertex 15 149.446 1.46962
      vertex 18.75 149.135 1.62079
    endloop
  endfacet
  facet normal -5.71534e-07 0.43776 0.899092
    outer loop
      vertex 200 150 1.2
      vertex 11.25 149.688 1.35179
      vertex 15 149.446 1.46962
    endloop
  endfacet
  facet normal -1.03151e-06 0.437985 0.898982
    outer loop
      vertex 200 150 1.2
      vertex 7.5 149.861 1.2675
      vertex 11.25 149.688 1.35179
    endloop
  endfacet
  facet normal -7.69069e-07 0.437691 0.899126
    outer loop
      vertex 200 150 1.2
      vertex 3.75 149.965 1.21687
      vertex 7.5 149.861 1.2675
    endloop
  endfacet
  facet normal 0 0.434195 0.900819
    outer loop
      vertex 3.75 149.965 1.21687
      vertex 200 150 1.2
      vertex 0 150 1.2
    endloop
  endfacet
  facet normal -5.98597e-06 0.437602 0.899169
    outer loop
      vertex 212 88 31.3733
      vertex 210 78.5497 35.9725
      vertex 212 77.7983 36.3382
    endloop
  endfacet
  facet normal 6.41671e-06 0.4376 0.89917
    outer loop
      vertex 212 88 31.3733
      vertex 206.25 79.9994 35.267
      vertex 210 78.5497 35.9725
    endloop
  endfacet
  facet normal -5.36897e-06 0.437607 0.899167
    outer loop
      vertex 212 88 31.3733
      vertex 202.5 81.4876 34.5427
      vertex 206.25 79.9994 35.267
    endloop
  endfacet
  facet normal 1.99503e-06 0.437598 0.899171
    outer loop
      vertex 200 84 33.32
      vertex 202.5 81.4876 34.5427
      vertex 212 88 31.3733
    endloop
  endfacet
  facet normal 9.06981e-06 0.437604 0.899168
    outer loop
      vertex 202.5 81.4876 34.5427
      vertex 200 84 33.32
      vertex 198.75 83.0121 33.8008
    endloop
  endfacet
  facet normal 0 -1 0
    outer loop
      vertex 163.486 12.35 0
      vertex 161.25 12.35 25.6741
      vertex 157.5 12.35 24.8183
    endloop
  endfacet
  facet normal 0 -1 0
    outer loop
      vertex 163.486 12.35 0
      vertex 157.5 12.35 24.8183
      vertex 153.75 12.35 23.9598
    endloop
  endfacet
  facet normal 0 -1 0
    outer loop
      vertex 163.486 12.35 0
      vertex 153.75 12.35 23.9598
      vertex 146.25 12.35 22.2402
    endloop
  endfacet
  facet normal 0 -1 0
    outer loop
      vertex 136.514 12.35 0
      vertex 146.25 12.35 22.2402
      vertex 142.5 12.35 21.3817
    endloop
  endfacet
  facet normal 0 -1 0
    outer loop
      vertex 136.514 12.35 0
      vertex 138.75 12.35 20.5259
      vertex 136.514 12.35 20.0181
    endloop
  endfacet
  facet normal 0 -1 0
    outer loop
      vertex 136.514 12.35 0
      vertex 142.5 12.35 21.3817
      vertex 138.75 12.35 20.5259
    endloop
  endfacet
  facet normal 0 -1 -0
    outer loop
      vertex 146.25 12.35 22.2402
      vertex 136.514 12.35 0
      vertex 163.486 12.35 0
    endloop
  endfacet
  facet normal 0 -1 0
    outer loop
      vertex 161.25 12.35 25.6741
      vertex 163.486 12.35 0
      vertex 163.486 12.35 26.1819
    endloop
  endfacet
  facet normal -0.948666 0.31628 0
    outer loop
      vertex 163.486 12.35 0
      vertex 161.25 5.64322 25.6741
      vertex 163.486 12.35 26.1819
    endloop
  endfacet
  facet normal -0.948676 0.316251 -8.33781e-06
    outer loop
      vertex 159.369 0 0
      vertex 161.25 5.64322 25.6741
      vertex 163.486 12.35 0
    endloop
  endfacet
  facet normal -0.948687 0.316217 0
    outer loop
      vertex 161.25 5.64322 25.6741
      vertex 159.369 0 0
      vertex 159.369 0 25.2448
    endloop
  endfacet
  facet normal 0 -1 0
    outer loop
      vertex 200 0 0
      vertex 198.75 0 33.8008
      vertex 195 0 33.0424
    endloop
  endfacet
  facet normal 0 -1 0
    outer loop
      vertex 200 0 0
      vertex 195 0 33.0424
      vertex 191.25 0 32.2686
    endloop
  endfacet
  facet normal 0 -1 0
    outer loop
      vertex 200 0 0
      vertex 191.25 0 32.2686
      vertex 187.5 0 31.4808
    endloop
  endfacet
  facet normal 0 -1 0
    outer loop
      vertex 200 0 0
      vertex 187.5 0 31.4808
      vertex 183.75 0 30.68
    endloop
  endfacet
  facet normal 0 -1 0
    outer loop
      vertex 200 0 0
      vertex 183.75 0 30.68
      vertex 180 0 29.8675
    endloop
  endfacet
  facet normal 0 -1 0
    outer loop
      vertex 200 0 0
      vertex 180 0 29.8675
      vertex 176.25 0 29.0445
    endloop
  endfacet
  facet normal 0 -1 0
    outer loop
      vertex 159.369 0 0
      vertex 176.25 0 29.0445
      vertex 172.5 0 28.2124
    endloop
  endfacet
  facet normal 0 -1 0
    outer loop
      vertex 159.369 0 0
      vertex 172.5 0 28.2124
      vertex 168.75 0 27.3725
    endloop
  endfacet
  facet normal 0 -1 0
    outer loop
      vertex 159.369 0 0
      vertex 168.75 0 27.3725
      vertex 165 0 26.5259
    endloop
  endfacet
  facet normal 0 -1 0
    outer loop
      vertex 159.369 0 0
      vertex 165 0 26.5259
      vertex 161.25 0 25.6741
    endloop
  endfacet
  facet normal 0 -1 0
    outer loop
      vertex 159.369 0 0
      vertex 161.25 0 25.6741
      vertex 159.369 0 25.2448
    endloop
  endfacet
  facet normal 0 -1 -0
    outer loop
      vertex 176.25 0 29.0445
      vertex 159.369 0 0
      vertex 200 0 0
    endloop
  endfacet
  facet normal 0 -1 0
    outer loop
      vertex 198.75 0 33.8008
      vertex 200 0 0
      vertex 200 0 34.0481
    endloop
  endfacet
  facet normal 1 -0 0
    outer loop
      vertex 200 0 34.0481
      vertex 200 66 0
      vertex 200 66 34.0481
    endloop
  endfacet
  facet normal 1 0 0
    outer loop
      vertex 200 66 0
      vertex 200 0 34.0481
      vertex 200 0 0
    endloop
  endfacet
  facet normal -0.316228 -0.948683 8.69982e-07
    outer loop
      vertex 212 62 0
      vertex 210 62.6667 35.9725
      vertex 206.25 63.9167 35.267
    endloop
  endfacet
  facet normal -0.316228 -0.948683 8.69293e-07
    outer loop
      vertex 212 62 0
      vertex 206.25 63.9167 35.267
      vertex 202.5 65.1667 34.5427
    endloop
  endfacet
  facet normal -0.316216 -0.948687 0
    outer loop
      vertex 200 66 0
      vertex 202.5 65.1667 34.5427
      vertex 200 66 34.0481
    endloop
  endfacet
  facet normal -0.316228 -0.948683 9.15469e-07
    outer loop
      vertex 202.5 65.1667 34.5427
      vertex 200 66 0
      vertex 212 62 0
    endloop
  endfacet
  facet normal -0.316242 -0.948679 0
    outer loop
      vertex 210 62.6667 35.9725
      vertex 212 62 0
      vertex 212 62 36.3382
    endloop
  endfacet
  facet normal 1 0 0
    outer loop
      vertex 212 62 0
      vertex 212 88 31.3733
      vertex 212 77.7983 36.3382
    endloop
  endfacet
  facet normal 1 0 0
    outer loop
      vertex 212 62 0
      vertex 212 77.7983 36.3382
      vertex 212 62 36.3382
    endloop
  endfacet
  facet normal 1 0 0
    outer loop
      vertex 212 88 31.3733
      vertex 212 62 0
      vertex 212 88 0
    endloop
  endfacet
  facet normal -0.316228 0.948683 0
    outer loop
      vertex 200 84 0
      vertex 212 88 31.3733
      vertex 212 88 0
    endloop
  endfacet
  facet normal -0.316228 0.948683 0
    outer loop
      vertex 212 88 31.3733
      vertex 200 84 0
      vertex 200 84 33.32
    endloop
  endfacet
  facet normal 1 0 0
    outer loop
      vertex 200 84 0
      vertex 200 150 1.2
      vertex 200 84 33.32
    endloop
  endfacet
  facet normal 1 0 0
    outer loop
      vertex 200 150 1.2
      vertex 200 84 0
      vertex 200 150 0
    endloop
  endfacet
  facet normal 0 -1 0
    outer loop
      vertex 0 0 0
      vertex 3.75 0 1.21687
      vertex 0 0 1.2
    endloop
  endfacet
  facet normal 0 -1 0
    outer loop
      vertex 0 0 0
      vertex 7.5 0 1.2675
      vertex 3.75 0 1.21687
    endloop
  endfacet
  facet normal 0 -1 0
    outer loop
      vertex 0 0 0
      vertex 11.25 0 1.35179
      vertex 7.5 0 1.2675
    endloop
  endfacet
  facet normal 0 -1 0
    outer loop
      vertex 0 0 0
      vertex 15 0 1.46962
      vertex 11.25 0 1.35179
    endloop
  endfacet
  facet normal 0 -1 0
    outer loop
      vertex 0 0 0
      vertex 18.75 0 1.62079
      vertex 15 0 1.46962
    endloop
  endfacet
  facet normal 0 -1 0
    outer loop
      vertex 0 0 0
      vertex 22.5 0 1.80508
      vertex 18.75 0 1.62079
    endloop
  endfacet
  facet normal 0 -1 0
    outer loop
      vertex 0 0 0
      vertex 26.25 0 2.02222
      vertex 22.5 0 1.80508
    endloop
  endfacet
  facet normal 0 -1 0
    outer loop
      vertex 140.631 0 0
      vertex 26.25 0 2.02222
      vertex 0 0 0
    endloop
  endfacet
  facet normal 0 -1 0
    outer loop
      vertex 26.25 0 2.02222
      vertex 140.631 0 0
      vertex 30 0 2.27185
    endloop
  endfacet
  facet normal 0 -1 0
    outer loop
      vertex 138.75 0 20.5259
      vertex 140.631 0 0
      vertex 140.631 0 20.9552
    endloop
  endfacet
  facet normal 0 -1 0
    outer loop
      vertex 135 0 19.6741
      vertex 140.631 0 0
      vertex 138.75 0 20.5259
    endloop
  endfacet
  facet normal 0 -1 0
    outer loop
      vertex 131.25 0 18.8275
      vertex 140.631 0 0
      vertex 135 0 19.6741
    endloop
  endfacet
  facet normal 0 -1 0
    outer loop
      vertex 127.5 0 17.9875
      vertex 140.631 0 0
      vertex 131.25 0 18.8275
    endloop
  endfacet
  facet normal 0 -1 0
    outer loop
      vertex 123.75 0 17.1554
      vertex 140.631 0 0
      vertex 127.5 0 17.9875
    endloop
  endfacet
  facet normal 0 -1 0
    outer loop
      vertex 120 0 16.3325
      vertex 140.631 0 0
      vertex 123.75 0 17.1554
    endloop
  endfacet
  facet normal 0 -1 0
    outer loop
      vertex 116.25 0 15.52
      vertex 140.631 0 0
      vertex 120 0 16.3325
    endloop
  endfacet
  facet normal 0 -1 0
    outer loop
      vertex 112.5 0 14.7192
      vertex 140.631 0 0
      vertex 116.25 0 15.52
    endloop
  endfacet
  facet normal 0 -1 0
    outer loop
      vertex 108.75 0 13.9314
      vertex 140.631 0 0
      vertex 112.5 0 14.7192
    endloop
  endfacet
  facet normal 0 -1 0
    outer loop
      vertex 105 0 13.1576
      vertex 140.631 0 0
      vertex 108.75 0 13.9314
    endloop
  endfacet
  facet normal 0 -1 0
    outer loop
      vertex 101.25 0 12.3992
      vertex 140.631 0 0
      vertex 105 0 13.1576
    endloop
  endfacet
  facet normal 0 -1 0
    outer loop
      vertex 97.5 0 11.6573
      vertex 140.631 0 0
      vertex 101.25 0 12.3992
    endloop
  endfacet
  facet normal 0 -1 0
    outer loop
      vertex 93.75 0 10.933
      vertex 140.631 0 0
      vertex 97.5 0 11.6573
    endloop
  endfacet
  facet normal 0 -1 0
    outer loop
      vertex 90 0 10.2275
      vertex 140.631 0 0
      vertex 93.75 0 10.933
    endloop
  endfacet
  facet normal 0 -1 0
    outer loop
      vertex 86.25 0 9.54184
      vertex 140.631 0 0
      vertex 90 0 10.2275
    endloop
  endfacet
  facet normal 0 -1 0
    outer loop
      vertex 82.5 0 8.87708
      vertex 140.631 0 0
      vertex 86.25 0 9.54184
    endloop
  endfacet
  facet normal 0 -1 0
    outer loop
      vertex 78.75 0 8.23425
      vertex 140.631 0 0
      vertex 82.5 0 8.87708
    endloop
  endfacet
  facet normal 0 -1 0
    outer loop
      vertex 75 0 7.61435
      vertex 140.631 0 0
      vertex 78.75 0 8.23425
    endloop
  endfacet
  facet normal 0 -1 0
    outer loop
      vertex 71.25 0 7.01833
      vertex 140.631 0 0
      vertex 75 0 7.61435
    endloop
  endfacet
  facet normal 0 -1 0
    outer loop
      vertex 67.5 0 6.4471
      vertex 140.631 0 0
      vertex 71.25 0 7.01833
    endloop
  endfacet
  facet normal 0 -1 0
    outer loop
      vertex 63.75 0 5.90155
      vertex 140.631 0 0
      vertex 67.5 0 6.4471
    endloop
  endfacet
  facet normal 0 -1 0
    outer loop
      vertex 60 0 5.38252
      vertex 140.631 0 0
      vertex 63.75 0 5.90155
    endloop
  endfacet
  facet normal 0 -1 0
    outer loop
      vertex 56.25 0 4.89081
      vertex 140.631 0 0
      vertex 60 0 5.38252
    endloop
  endfacet
  facet normal 0 -1 0
    outer loop
      vertex 52.5 0 4.42717
      vertex 140.631 0 0
      vertex 56.25 0 4.89081
    endloop
  endfacet
  facet normal 0 -1 0
    outer loop
      vertex 48.75 0 3.99232
      vertex 140.631 0 0
      vertex 52.5 0 4.42717
    endloop
  endfacet
  facet normal 0 -1 0
    outer loop
      vertex 45 0 3.58694
      vertex 140.631 0 0
      vertex 48.75 0 3.99232
    endloop
  endfacet
  facet normal 0 -1 0
    outer loop
      vertex 41.25 0 3.21165
      vertex 140.631 0 0
      vertex 45 0 3.58694
    endloop
  endfacet
  facet normal 0 -1 0
    outer loop
      vertex 37.5 0 2.86703
      vertex 140.631 0 0
      vertex 41.25 0 3.21165
    endloop
  endfacet
  facet normal 0 -1 0
    outer loop
      vertex 33.75 0 2.5536
      vertex 140.631 0 0
      vertex 37.5 0 2.86703
    endloop
  endfacet
  facet normal 0 -1 0
    outer loop
      vertex 30 0 2.27185
      vertex 140.631 0 0
      vertex 33.75 0 2.5536
    endloop
  endfacet
  facet normal 0.948666 0.31628 0
    outer loop
      vertex 138.75 5.64322 20.5259
      vertex 136.514 12.35 0
      vertex 136.514 12.35 20.0181
    endloop
  endfacet
  facet normal 0.948687 0.316217 -0
    outer loop
      vertex 140.631 0 0
      vertex 138.75 5.64322 20.5259
      vertex 140.631 0 20.9552
    endloop
  endfacet
  facet normal 0.948676 0.316251 -1.04291e-05
    outer loop
      vertex 138.75 5.64322 20.5259
      vertex 140.631 0 0
      vertex 136.514 12.35 0
    endloop
  endfacet
endsolid OpenSCAD_Model
